<svg width="198" height="54" viewBox="0 0 198 54" fill="none" xmlns="http://www.w3.org/2000/svg">
<path d="M8.5 6.7322C2.5 5.5322 0.333333 11.2322 0 14.2322C3.99267 13.5276 5.76743 14.8571 6.41736 16.5809C7.28157 18.8732 6.647 21.4818 6.93323 23.9147C7.30227 27.0516 8.54118 30.1092 11.0552 32.0213C13.8551 34.1508 17.3624 35.8148 20 34.2322C24 31.8322 30 37.2322 32.5 40.2322C41.7 36.6322 44 29.3989 44 26.2322C41.2 29.8322 33.5 27.3989 30 25.7322C42 12.7322 27 -5.76777 27 1.73223C27 7.73223 20.3333 13.5656 17 15.7322C16.6667 13.2322 14.5 7.93221 8.5 6.7322Z" fill="#F8F8F8"/>
<path d="M16.5156 45.2949C16 46.0293 15.4805 46.6836 14.957 47.2578C14.4375 47.8281 13.8965 48.3164 13.334 48.7227C12.7754 49.125 12.1836 49.4414 11.5586 49.6719C11.2539 49.7773 10.9414 49.8594 10.6211 49.918C10.3047 49.9727 9.98242 50 9.6543 50C8.92773 50 8.4043 49.8379 8.08398 49.5137C7.76367 49.1855 7.60352 48.8105 7.60352 48.3887C7.60352 48.0059 7.71484 47.5547 7.9375 47.0352C8.16406 46.5117 8.37695 46.0918 8.57617 45.7754L8.98047 45.043C8.87891 45.043 8.78906 45.0352 8.71094 45.0195C8.63672 45.0039 8.54883 44.9727 8.44727 44.9258C8.27539 44.8438 8.13281 44.748 8.01953 44.6387C7.91406 44.5293 7.84766 44.4199 7.82031 44.3105V44.2285C7.83203 44.1895 7.85547 44.1641 7.89062 44.1523L8.00195 44.1816L8.16602 44.2051L8.29492 44.1875L8.42969 44.1406C8.47656 44.1211 8.54297 44.082 8.62891 44.0234C8.71484 43.9609 8.81836 43.8789 8.93945 43.7773C9.18555 43.5781 9.38281 43.4043 9.53125 43.2559L10.0234 42.7754L10.3984 42.3652L10.6973 42.0137L10.9668 41.6797C11.1309 41.4688 11.2324 41.3613 11.2715 41.3574C11.334 41.3574 11.4023 41.4727 11.4766 41.7031C11.5508 41.9336 11.5879 42.1914 11.5879 42.4766C11.5879 42.6602 11.5742 42.8242 11.5469 42.9688C11.5195 43.1133 11.4727 43.2559 11.4062 43.3965C11.2891 43.6582 11.1465 43.875 10.9785 44.0469C10.8145 44.2188 10.6641 44.3535 10.5273 44.4512L9.92969 44.8145C9.59766 45.002 9.32227 45.2422 9.10352 45.5352C8.90039 45.8086 8.75 46.0957 8.65234 46.3965C8.61328 46.5332 8.58203 46.666 8.55859 46.7949C8.53516 46.9238 8.52344 47.0391 8.52344 47.1406C8.52344 47.5156 8.66797 47.8496 8.95703 48.1426C9.24609 48.4355 9.71484 48.582 10.3633 48.582C10.6094 48.582 10.8438 48.5684 11.0664 48.541C11.1914 48.5293 11.3066 48.5137 11.4121 48.4941C11.5215 48.4746 11.6465 48.4473 11.7871 48.4121C12.2715 48.3027 12.7559 48.125 13.2402 47.8789C13.7285 47.6289 14.2109 47.2988 14.6875 46.8887C15.1641 46.4746 15.6094 45.9863 16.0234 45.4238L16.2578 45.0781C16.3164 44.9805 16.3594 44.8828 16.3867 44.7852L16.4512 44.4922C16.4668 44.3945 16.4746 44.3203 16.4746 44.2695C16.4785 44.2148 16.4805 44.1719 16.4805 44.1406C16.4805 43.7695 16.6113 43.4922 16.873 43.3086C17.1387 43.1211 17.4043 43.0273 17.6699 43.0273C17.7598 43.0273 17.8164 43.0684 17.8398 43.1504L17.8926 43.3965L17.9102 43.6133L18.1387 46.9414C18.1387 47.2383 18.1914 47.4688 18.2969 47.6328C18.4023 47.793 18.5449 47.873 18.7246 47.873C18.8535 47.873 19.0977 47.7656 19.457 47.5508C19.5625 47.4922 19.668 47.4219 19.7734 47.3398C19.8789 47.2539 19.9492 47.209 19.9844 47.2051C20.082 47.2051 20.1309 47.2598 20.1309 47.3691V47.873C20.1309 48.1621 20.082 48.4551 19.9844 48.752C19.9375 48.9082 19.8789 49.0645 19.8086 49.2207C19.7422 49.373 19.6621 49.5352 19.5684 49.707C19.2324 50.3438 18.8203 50.9199 18.332 51.4355C17.8438 51.9512 17.3379 52.3691 16.8145 52.6895C16.2949 53.0098 15.8594 53.1699 15.5078 53.1699C15.1875 53.1699 14.9648 53.0605 14.8398 52.8418C14.7188 52.623 14.6582 52.377 14.6582 52.1035C14.6582 51.7715 14.7539 51.4531 14.9453 51.1484C15.1406 50.8438 15.3789 50.5996 15.6602 50.416C15.8008 50.3301 15.9336 50.2637 16.0586 50.2168C16.1875 50.1699 16.3086 50.1465 16.4219 50.1465C16.6133 50.1465 16.709 50.1895 16.709 50.2754C16.709 50.3105 16.6289 50.4316 16.4688 50.6387L16.1992 51.0078L16 51.3418C15.8984 51.5332 15.8477 51.7422 15.8477 51.9688C15.8477 52.2734 15.9551 52.4258 16.1699 52.4258C16.3457 52.4258 16.5664 52.3184 16.832 52.1035C16.8984 52.0527 16.9629 51.998 17.0254 51.9395C17.0918 51.8809 17.1562 51.8145 17.2188 51.7402C17.3398 51.6152 17.4707 51.457 17.6113 51.2656C17.8535 50.9453 18.0586 50.5898 18.2266 50.1992C18.3984 49.8125 18.4844 49.4648 18.4844 49.1562C18.4844 49.0039 18.4648 48.8691 18.4258 48.752C18.0352 49.0293 17.7266 49.168 17.5 49.168C17.2188 49.168 17.0293 49.0332 16.9316 48.7637C16.8379 48.4902 16.7676 48.1094 16.7207 47.6211L16.5156 45.2949ZM20.9805 48.3301C20.9805 48.5879 21.168 48.7734 21.543 48.8867C21.7305 48.9375 21.9238 48.9785 22.123 49.0098C22.2246 49.0215 22.3262 49.0312 22.4277 49.0391C22.5293 49.0469 22.6387 49.0508 22.7559 49.0508C23.0137 49.0508 23.2324 49.002 23.4121 48.9043C23.459 48.8809 23.5059 48.8555 23.5527 48.8281C23.6035 48.7969 23.6523 48.7656 23.6992 48.7344C23.7812 48.6836 23.8887 48.6016 24.0215 48.4883C24.1582 48.375 24.2559 48.3145 24.3145 48.3066C24.3848 48.3066 24.4199 48.3457 24.4199 48.4238C24.4199 48.4668 24.3809 48.5273 24.3027 48.6055C24.1973 48.7227 24.0898 48.8301 23.9805 48.9277L23.5645 49.2969C23.2715 49.543 22.9492 49.7715 22.5977 49.9824C22.418 50.0879 22.2539 50.1641 22.1055 50.2109C21.957 50.2617 21.8125 50.2871 21.6719 50.2871C21.4609 50.2871 21.2344 50.2344 20.9922 50.1289C20.75 50.0234 20.5469 49.8594 20.3828 49.6367C20.2188 49.4141 20.1367 49.1504 20.1367 48.8457C20.1367 48.7012 20.1582 48.5566 20.2012 48.4121C20.2441 48.2637 20.3145 48.1074 20.4121 47.9434C20.5879 47.6309 20.834 47.3281 21.1504 47.0352C21.4395 46.7773 21.7715 46.5605 22.1465 46.3848C22.5254 46.209 22.8809 46.1211 23.2129 46.1211C23.4004 46.1211 23.541 46.1758 23.6348 46.2852C23.7285 46.3906 23.7754 46.5254 23.7754 46.6895C23.7754 46.9238 23.6445 47.1699 23.3828 47.4277C23.1211 47.6855 22.7715 47.9004 22.334 48.0723C21.8965 48.2441 21.4453 48.3301 20.9805 48.3301ZM21.0391 47.9609C21.2734 47.9609 21.4746 47.9453 21.6426 47.9141C21.8105 47.8828 21.9629 47.8301 22.0996 47.7559C22.3535 47.6152 22.4805 47.4473 22.4805 47.252C22.4805 47.0254 22.3633 46.9121 22.1289 46.9121C21.918 46.9121 21.709 47.0254 21.502 47.252C21.2988 47.4746 21.1445 47.7109 21.0391 47.9609ZM30.4141 48.6406L29.4648 49.4082L28.9844 49.8125L28.7969 49.9473L28.6152 50.0645C28.4902 50.127 28.3789 50.1582 28.2812 50.1582C27.8242 50.1582 27.5957 49.7734 27.5957 49.0039C27.5957 48.8984 27.5586 48.8457 27.4844 48.8457L27.332 48.9043L27.1504 48.9922C26.8848 49.1172 26.6328 49.2129 26.3945 49.2793C26.1602 49.3418 25.9453 49.373 25.75 49.373C25.6367 49.373 25.5527 49.3887 25.498 49.4199C25.4473 49.4512 25.3867 49.541 25.3164 49.6895C25.1875 49.9551 25.0156 50.0879 24.8008 50.0879C24.6641 50.0879 24.5664 49.9395 24.5078 49.6426C24.4531 49.3418 24.4258 49.0371 24.4258 48.7285C24.4258 47.6973 25.002 46.9453 26.1543 46.4727L26.2891 46.4258L26.4766 46.3965C26.6562 46.3965 26.7461 46.4648 26.7461 46.6016C26.7461 46.668 26.6719 46.8184 26.5234 47.0527C26.3789 47.2832 26.2559 47.5137 26.1543 47.7441C26.0098 48.1191 25.9375 48.3516 25.9375 48.4414C25.9375 48.543 25.9863 48.5938 26.084 48.5938C26.377 48.5938 26.8281 48.459 27.4375 48.1895C27.5742 48.1309 27.6621 48.0723 27.7012 48.0137C27.7441 47.9551 27.7969 47.8438 27.8594 47.6797C27.9531 47.4141 28.0547 47.2246 28.1641 47.1113C28.2578 47.0059 28.3633 46.9297 28.4805 46.8828L28.7324 46.8184L29.1777 46.7129C29.2207 46.7012 29.2891 46.6855 29.3828 46.666C29.4766 46.6465 29.5371 46.6367 29.5645 46.6367C29.7012 46.6367 29.7695 46.6934 29.7695 46.8066C29.7695 46.9043 29.6484 47.1406 29.4062 47.5156C29.0781 48.0156 28.9141 48.375 28.9141 48.5938C28.9141 48.8164 28.998 48.9277 29.166 48.9277C29.3066 48.9277 29.6914 48.7402 30.3203 48.3652C30.4102 48.3184 30.4746 48.2949 30.5137 48.2949C30.584 48.2949 30.6191 48.3301 30.6191 48.4004C30.6191 48.4473 30.5508 48.5273 30.4141 48.6406ZM37.2285 49.3613L37.082 48.4766C37.0586 48.3125 37.0098 48.1816 36.9355 48.084C36.8652 47.9824 36.791 47.9316 36.7129 47.9316C36.6426 47.9316 36.5645 47.9629 36.4785 48.0254L36.2852 48.1895L36.1152 48.3418L35.5 48.9277L34.9375 49.4785C34.7852 49.6309 34.6035 49.7871 34.3926 49.9473C34.2207 50.0723 34.0781 50.1348 33.9648 50.1348C33.7305 50.1348 33.6133 50.0254 33.6133 49.8066C33.6133 49.7168 33.6426 49.5918 33.7012 49.4316L34.1523 48.2598C34.1719 48.1855 34.1855 48.1348 34.1934 48.1074C34.2168 48.0215 34.2285 47.959 34.2285 47.9199C34.2285 47.7441 34.1562 47.6562 34.0117 47.6562C33.8672 47.6562 33.5742 47.8535 33.1328 48.248L31.9199 49.373L31.3047 49.959C31.1992 50.0527 31.0898 50.0996 30.9766 50.0996C30.7422 50.0996 30.625 49.8613 30.625 49.3848C30.625 48.8965 30.666 48.502 30.748 48.2012C30.834 47.8965 30.9531 47.6465 31.1055 47.4512C31.2617 47.252 31.4707 47.0566 31.7324 46.8652C32.1699 46.5449 32.5293 46.3848 32.8105 46.3848C32.916 46.3848 32.9688 46.4336 32.9688 46.5312C32.9688 46.5977 32.9277 46.7168 32.8457 46.8887L32.4004 47.7676L32.2949 47.9844L32.1953 48.2305C32.1719 48.3008 32.1602 48.3711 32.1602 48.4414C32.1602 48.543 32.2012 48.5938 32.2832 48.5938C32.3887 48.5938 32.6289 48.4062 33.0039 48.0312C33.1875 47.8477 33.4082 47.6484 33.666 47.4336C33.9629 47.1836 34.2539 46.9648 34.5391 46.7773C34.8281 46.5898 35.0566 46.4961 35.2246 46.4961C35.3691 46.4961 35.4883 46.5391 35.582 46.625C35.6797 46.707 35.7285 46.832 35.7285 47C35.7285 47.0664 35.7246 47.1152 35.7168 47.1465C35.709 47.1777 35.6914 47.2324 35.6641 47.3105C35.6328 47.4395 35.5625 47.6406 35.4531 47.9141C35.3477 48.1836 35.291 48.3535 35.2832 48.4238C35.2832 48.5293 35.3105 48.582 35.3652 48.582C35.4004 48.582 35.4648 48.5469 35.5586 48.4766L37 47.2051C37.2695 46.9473 37.5137 46.8184 37.7324 46.8184C37.9551 46.8184 38.1016 46.9043 38.1719 47.0762C38.2422 47.248 38.2969 47.5273 38.3359 47.9141C38.375 48.2969 38.418 48.5625 38.4648 48.7109C38.5117 48.8555 38.6035 48.9277 38.7402 48.9277C38.8926 48.9277 39.1562 48.8164 39.5312 48.5938L39.8008 48.4355L40 48.3125L40.0938 48.2949C40.168 48.2949 40.2051 48.334 40.2051 48.4121C40.2051 48.4785 40.1152 48.584 39.9355 48.7285C39.7285 48.9043 39.2578 49.2676 38.5234 49.8184L38.3184 49.9707L38.1426 50.0762C38.0527 50.1309 37.9512 50.1582 37.8379 50.1582C37.5176 50.1582 37.3145 49.8926 37.2285 49.3613ZM40.334 47.9492L41.8223 46.7129C42.0215 46.5449 42.2324 46.4609 42.4551 46.4609C42.6465 46.4609 42.7422 46.625 42.7422 46.9531C42.7422 47.5391 42.5664 48.4062 42.2148 49.5547L42.8301 48.5938C43.127 48.1172 43.4004 47.7207 43.6504 47.4043C43.9004 47.084 44.1719 46.8203 44.4648 46.6133C44.7578 46.4062 45.0645 46.3027 45.3848 46.3027C45.4434 46.3027 45.4883 46.3047 45.5195 46.3086C45.5508 46.3125 45.6113 46.3262 45.7012 46.3496C45.791 46.3691 45.8867 46.4102 45.9883 46.4727C46.2031 46.5859 46.3105 46.834 46.3105 47.2168C46.3105 47.5176 46.209 47.8477 46.0059 48.207C45.8066 48.5664 45.5488 48.8945 45.2324 49.1914C44.9199 49.4883 44.5918 49.7305 44.248 49.918C43.9082 50.1016 43.5996 50.1934 43.3223 50.1934C43.1621 50.1934 43.0488 50.1172 42.9824 49.9648V49.6484C43.041 49.2891 43.1895 49.1094 43.4277 49.1094C43.4824 49.1094 43.582 49.1289 43.7266 49.168L43.9727 49.2617C44.1172 49.3125 44.2246 49.3379 44.2949 49.3379C44.4004 49.3379 44.5117 49.2969 44.6289 49.2148C44.75 49.1289 44.8516 49.002 44.9336 48.834C45.0195 48.666 45.0625 48.4707 45.0625 48.248C45.0625 48.0176 45.002 47.8438 44.8809 47.7266C44.7637 47.6094 44.6348 47.5508 44.4941 47.5508C44.3574 47.5508 44.2168 47.584 44.0723 47.6504C43.9316 47.7168 43.7832 47.8223 43.627 47.9668C43.3223 48.2402 43.041 48.6621 42.7832 49.2324C42.6621 49.498 42.4785 50 42.2324 50.7383C41.9902 51.4805 41.8125 52 41.6992 52.2969C41.5703 52.6562 41.4043 52.9863 41.2012 53.2871C41.002 53.5918 40.7852 53.7441 40.5508 53.7441C40.418 53.7441 40.2949 53.6875 40.1816 53.5742C40.0645 53.4609 40.0059 53.2988 40.0059 53.0879C40.0059 52.9277 40.0391 52.7285 40.1055 52.4902C40.1719 52.252 40.3281 51.9238 40.5742 51.5059C40.8242 51.0918 41.1875 50.582 41.6641 49.9766L41.6699 49.5723L41.6992 48.5586C41.6992 48.0625 41.5391 47.8145 41.2188 47.8145C41.1094 47.8145 40.9258 47.8906 40.668 48.043L40.4336 48.166L40.334 48.2129C40.2871 48.2129 40.25 48.1875 40.2227 48.1367C40.2227 48.0742 40.2598 48.0117 40.334 47.9492ZM51.0098 47.9492L52.498 46.7129C52.6973 46.5449 52.9082 46.4609 53.1309 46.4609C53.3223 46.4609 53.418 46.625 53.418 46.9531C53.418 47.5391 53.2422 48.4062 52.8906 49.5547L53.5059 48.5938C53.8027 48.1172 54.0762 47.7207 54.3262 47.4043C54.5762 47.084 54.8477 46.8203 55.1406 46.6133C55.4336 46.4062 55.7402 46.3027 56.0605 46.3027C56.1191 46.3027 56.1641 46.3047 56.1953 46.3086C56.2266 46.3125 56.2871 46.3262 56.377 46.3496C56.4668 46.3691 56.5625 46.4102 56.6641 46.4727C56.8789 46.5859 56.9863 46.834 56.9863 47.2168C56.9863 47.5176 56.8848 47.8477 56.6816 48.207C56.4824 48.5664 56.2246 48.8945 55.9082 49.1914C55.5957 49.4883 55.2676 49.7305 54.9238 49.918C54.584 50.1016 54.2754 50.1934 53.998 50.1934C53.8379 50.1934 53.7246 50.1172 53.6582 49.9648V49.6484C53.7168 49.2891 53.8652 49.1094 54.1035 49.1094C54.1582 49.1094 54.2578 49.1289 54.4023 49.168L54.6484 49.2617C54.793 49.3125 54.9004 49.3379 54.9707 49.3379C55.0762 49.3379 55.1875 49.2969 55.3047 49.2148C55.4258 49.1289 55.5273 49.002 55.6094 48.834C55.6953 48.666 55.7383 48.4707 55.7383 48.248C55.7383 48.0176 55.6777 47.8438 55.5566 47.7266C55.4395 47.6094 55.3105 47.5508 55.1699 47.5508C55.0332 47.5508 54.8926 47.584 54.748 47.6504C54.6074 47.7168 54.459 47.8223 54.3027 47.9668C53.998 48.2402 53.7168 48.6621 53.459 49.2324C53.3379 49.498 53.1543 50 52.9082 50.7383C52.666 51.4805 52.4883 52 52.375 52.2969C52.2461 52.6562 52.0801 52.9863 51.877 53.2871C51.6777 53.5918 51.4609 53.7441 51.2266 53.7441C51.0938 53.7441 50.9707 53.6875 50.8574 53.5742C50.7402 53.4609 50.6816 53.2988 50.6816 53.0879C50.6816 52.9277 50.7148 52.7285 50.7812 52.4902C50.8477 52.252 51.0039 51.9238 51.25 51.5059C51.5 51.0918 51.8633 50.582 52.3398 49.9766L52.3457 49.5723L52.375 48.5586C52.375 48.0625 52.2148 47.8145 51.8945 47.8145C51.7852 47.8145 51.6016 47.8906 51.3438 48.043L51.1094 48.166L51.0098 48.2129C50.9629 48.2129 50.9258 48.1875 50.8984 48.1367C50.8984 48.0742 50.9355 48.0117 51.0098 47.9492ZM58.1875 48.3301C58.1875 48.5879 58.375 48.7734 58.75 48.8867C58.9375 48.9375 59.1309 48.9785 59.3301 49.0098C59.4316 49.0215 59.5332 49.0312 59.6348 49.0391C59.7363 49.0469 59.8457 49.0508 59.9629 49.0508C60.2207 49.0508 60.4395 49.002 60.6191 48.9043C60.666 48.8809 60.7129 48.8555 60.7598 48.8281C60.8105 48.7969 60.8594 48.7656 60.9062 48.7344C60.9883 48.6836 61.0957 48.6016 61.2285 48.4883C61.3652 48.375 61.4629 48.3145 61.5215 48.3066C61.5918 48.3066 61.627 48.3457 61.627 48.4238C61.627 48.4668 61.5879 48.5273 61.5098 48.6055C61.4043 48.7227 61.2969 48.8301 61.1875 48.9277L60.7715 49.2969C60.4785 49.543 60.1562 49.7715 59.8047 49.9824C59.625 50.0879 59.4609 50.1641 59.3125 50.2109C59.1641 50.2617 59.0195 50.2871 58.8789 50.2871C58.668 50.2871 58.4414 50.2344 58.1992 50.1289C57.957 50.0234 57.7539 49.8594 57.5898 49.6367C57.4258 49.4141 57.3438 49.1504 57.3438 48.8457C57.3438 48.7012 57.3652 48.5566 57.4082 48.4121C57.4512 48.2637 57.5215 48.1074 57.6191 47.9434C57.7949 47.6309 58.041 47.3281 58.3574 47.0352C58.6465 46.7773 58.9785 46.5605 59.3535 46.3848C59.7324 46.209 60.0879 46.1211 60.4199 46.1211C60.6074 46.1211 60.748 46.1758 60.8418 46.2852C60.9355 46.3906 60.9824 46.5254 60.9824 46.6895C60.9824 46.9238 60.8516 47.1699 60.5898 47.4277C60.3281 47.6855 59.9785 47.9004 59.541 48.0723C59.1035 48.2441 58.6523 48.3301 58.1875 48.3301ZM58.2461 47.9609C58.4805 47.9609 58.6816 47.9453 58.8496 47.9141C59.0176 47.8828 59.1699 47.8301 59.3066 47.7559C59.5605 47.6152 59.6875 47.4473 59.6875 47.252C59.6875 47.0254 59.5703 46.9121 59.3359 46.9121C59.125 46.9121 58.916 47.0254 58.709 47.252C58.5059 47.4746 58.3516 47.7109 58.2461 47.9609ZM62.7168 47.2871L61.9199 47.8379C61.8379 47.8848 61.7715 47.9121 61.7207 47.9199C61.666 47.9199 61.6367 47.8926 61.6328 47.8379C61.6328 47.791 61.6621 47.7383 61.7207 47.6797L62.2715 47.1641C62.2246 47.1172 62.1953 47.0742 62.1836 47.0352C62.1836 46.9492 62.293 46.8086 62.5117 46.6133L63.1797 46.0156C63.2383 45.9609 63.3086 45.918 63.3906 45.8867C63.4766 45.8516 63.5625 45.834 63.6484 45.834C63.6797 45.834 63.7051 45.8496 63.7246 45.8809V46.0156C63.7129 46.0469 63.6797 46.084 63.625 46.127C63.5742 46.1699 63.5469 46.2168 63.543 46.2676C63.543 46.3457 63.6875 46.3848 63.9766 46.3848L64.252 46.3789L64.5508 46.373C64.793 46.373 64.9473 46.3984 65.0137 46.4492C65.0801 46.4961 65.1133 46.5996 65.1133 46.7598C65.0898 46.9199 65.0586 47.0273 65.0195 47.082C65.0078 47.1172 64.9648 47.1582 64.8906 47.2051L64.7324 47.3105C63.9941 47.7559 63.625 48.1191 63.625 48.4004C63.625 48.6035 63.7402 48.791 63.9707 48.9629C64.2012 49.1348 64.4473 49.2207 64.709 49.2207C64.9668 49.2207 65.3301 49.0156 65.7988 48.6055C65.8574 48.5586 65.918 48.5312 65.9805 48.5234C66.0234 48.5234 66.0508 48.5469 66.0625 48.5938C66.0625 48.6523 66.0312 48.7129 65.9688 48.7754C65.8203 48.9277 65.6484 49.0898 65.4531 49.2617C65.2578 49.4336 65.043 49.6094 64.8086 49.7891C64.3359 50.1484 63.9414 50.3281 63.625 50.3281C63.3828 50.3281 63.1523 50.2305 62.9336 50.0352C62.7148 49.8398 62.6055 49.5879 62.6055 49.2793C62.6055 49.0176 62.6777 48.793 62.8223 48.6055C62.9707 48.4141 63.1738 48.207 63.4316 47.9844C63.7246 47.7266 63.873 47.5664 63.877 47.5039C63.877 47.3594 63.4902 47.2871 62.7168 47.2871ZM69.0625 49.0625C68.3164 49.9219 67.6523 50.3516 67.0703 50.3516C66.8203 50.3516 66.5898 50.248 66.3789 50.041C66.168 49.834 66.0625 49.5645 66.0625 49.2324C66.0625 48.9395 66.1797 48.5684 66.4141 48.1191C66.6523 47.6699 66.9219 47.2832 67.2227 46.959C67.5234 46.6348 67.7695 46.4727 67.9609 46.4727C68.0703 46.4727 68.1816 46.5176 68.2949 46.6074C68.4082 46.6973 68.4648 46.8086 68.4648 46.9414C68.4648 47.1953 68.1562 47.5312 67.5391 47.9492C67.3008 48.1055 67.1816 48.2695 67.1816 48.4414C67.1816 48.5781 67.2812 48.7051 67.4805 48.8223C67.6836 48.9355 67.9355 48.9922 68.2363 48.9922C68.3887 48.9922 68.5449 48.9609 68.7051 48.8984C68.8652 48.832 69.0625 48.6855 69.2969 48.459C69.5352 48.2324 69.7969 47.9141 70.082 47.5039C70.2695 47.2383 70.4238 47.043 70.5449 46.918C70.6699 46.7891 70.8125 46.7246 70.9727 46.7246C71.0898 46.7246 71.2012 46.7637 71.3066 46.8418C71.4199 46.9121 71.4766 47.0039 71.4766 47.1172C71.4766 47.3203 71.2559 47.625 70.8145 48.0312C70.5293 48.293 70.3867 48.4648 70.3867 48.5469C70.3867 48.6484 70.4668 48.748 70.627 48.8457C70.791 48.9434 70.9531 48.9922 71.1133 48.9922C71.4414 48.9922 71.8145 48.8203 72.2324 48.4766C72.3223 48.3945 72.3867 48.3496 72.4258 48.3418C72.5117 48.3418 72.5547 48.3789 72.5547 48.4531C72.5547 48.5234 72.252 48.8145 71.6465 49.3262L71.1367 49.7246C71.0586 49.7832 70.9785 49.8418 70.8965 49.9004C70.8184 49.9551 70.748 50.002 70.6855 50.041C70.4199 50.2051 70.1836 50.2871 69.9766 50.2871C69.7461 50.2871 69.5391 50.1758 69.3555 49.9531C69.2695 49.8438 69.1973 49.7129 69.1387 49.5605C69.0879 49.3965 69.0625 49.2305 69.0625 49.0625ZM84.6016 47C85.0195 46.4258 85.5293 45.8164 86.1309 45.1719C86.7363 44.5273 87.3535 43.9629 87.9824 43.4785C88.6113 42.9941 89.1309 42.752 89.541 42.752C89.916 42.752 90.209 42.9414 90.4199 43.3203C90.6309 43.6992 90.7812 44.1523 90.8711 44.6797C90.9414 45.1211 91.0273 45.8184 91.1289 46.7715L91.1758 47.3633C91.1758 47.4258 91.1758 47.4863 91.1758 47.5449C91.1875 47.5918 91.1953 47.627 91.1992 47.6504L91.252 47.8789C91.2832 48.0195 91.334 48.1348 91.4043 48.2246C91.4785 48.3105 91.5781 48.3535 91.7031 48.3535C91.8789 48.3535 92.1113 48.2695 92.4004 48.1016C92.5762 48.0078 92.6875 47.957 92.7344 47.9492C92.832 47.9492 92.8809 47.9844 92.8809 48.0547C92.8809 48.0898 92.8652 48.125 92.834 48.1602L92.6641 48.3184L92.4707 48.4766L91.668 49.1797C91.2188 49.5742 90.8145 49.7715 90.4551 49.7715C90.2246 49.7715 90.0488 49.6855 89.9277 49.5137C89.8105 49.3379 89.7246 49.1113 89.6699 48.834C89.6699 48.7949 89.668 48.7578 89.6641 48.7227C89.6484 48.6289 89.6328 48.5352 89.6172 48.4414C89.6055 48.3438 89.5938 48.2188 89.582 48.0664C89.5703 47.9102 89.5645 47.7773 89.5645 47.668V47.4688C89.5645 47.4219 89.5645 47.373 89.5645 47.3223C89.5566 47.2598 89.5527 47.2148 89.5527 47.1875C89.5527 47.0742 89.5371 46.9082 89.5059 46.6895L89.3418 44.9082C89.3066 44.5176 89.2285 44.2051 89.1074 43.9707C88.9863 43.7324 88.7871 43.6133 88.5098 43.6133C88.3301 43.6133 88.0723 43.7793 87.7363 44.1113C87.5605 44.2793 87.3848 44.4629 87.209 44.6621C87.0332 44.8613 86.8418 45.0879 86.6348 45.3418L86.084 46.0449L85.5742 46.7188L84.7539 47.8613L84.3145 48.4941C84.209 48.6504 84.0859 48.8047 83.9453 48.957C83.8203 49.0938 83.6875 49.2031 83.5469 49.2852C83.4062 49.3594 83.248 49.3965 83.0723 49.3965C82.9004 49.3965 82.7461 49.3594 82.6094 49.2852C82.4727 49.207 82.4043 49.0938 82.4043 48.9453C82.4043 48.6875 82.6113 48.2617 83.0254 47.668C83.2207 47.3945 83.498 46.9473 83.8574 46.3262C84.0176 46.0449 84.1816 45.7441 84.3496 45.4238C84.4199 45.2871 84.4785 45.1719 84.5254 45.0781C84.5957 44.9336 84.6816 44.7539 84.7832 44.5391C85.0527 43.9531 85.1875 43.5215 85.1875 43.2441C85.1875 43.0488 85.1211 42.9023 84.9883 42.8047C84.8594 42.7031 84.7383 42.6523 84.625 42.6523C84.4023 42.6523 84.125 42.7539 83.793 42.957C83.4609 43.1602 83.1465 43.3965 82.8496 43.666C82.6973 43.8027 82.5547 43.9375 82.4219 44.0703C82.2695 44.2188 82.1426 44.3516 82.041 44.4688C81.7949 44.7383 81.5449 45.0391 81.291 45.3711C81.041 45.6992 80.791 46.0449 80.541 46.4082L79.7031 47.6738L79.041 48.6934C78.9082 48.9004 78.7949 49.0703 78.7012 49.2031C78.5957 49.3516 78.5117 49.4648 78.4492 49.543C78.3242 49.7031 78.1934 49.8184 78.0566 49.8887C77.9199 49.9551 77.752 49.9883 77.5527 49.9883C77.0332 49.9883 76.7734 49.7871 76.7734 49.3848C76.7734 49.0801 77.0469 48.5293 77.5938 47.7324L78.2207 46.8008L78.748 45.9863L79.1465 45.3418L79.4629 44.7852L79.6797 44.3691L79.8262 44.0176C79.8965 43.8301 79.9316 43.6719 79.9316 43.543C79.9316 43.3555 79.8516 43.1992 79.6914 43.0742C79.5312 42.9453 79.3066 42.8809 79.0176 42.8809C78.8066 42.8809 78.6895 42.9004 78.666 42.9395L78.5957 43.0566C78.5723 43.0918 78.4531 43.1094 78.2383 43.1094C78.125 43.1094 78.0684 43.0703 78.0684 42.9922C78.0684 42.9219 78.1016 42.834 78.168 42.7285L78.5605 42.0195C78.6426 41.875 78.7246 41.7695 78.8066 41.7031C78.8926 41.6328 79.0391 41.5977 79.2461 41.5977C79.4609 41.5977 79.6855 41.6387 79.9199 41.7207C80.1582 41.8027 80.3613 41.9414 80.5293 42.1367C80.6973 42.332 80.7812 42.5879 80.7812 42.9043C80.7812 43.0176 80.7773 43.0996 80.7695 43.1504C80.7656 43.1973 80.752 43.2773 80.7285 43.3906C80.7051 43.5039 80.6543 43.6543 80.5762 43.8418C80.4355 44.1816 80.2246 44.6152 79.9434 45.1426L78.9941 46.877C79.3379 46.4551 79.7402 45.998 80.2012 45.5059C80.4355 45.248 80.6777 44.9941 80.9277 44.7441C81.2012 44.4707 81.4746 44.2109 81.748 43.9648C82.3027 43.4648 82.8711 43.0352 83.4531 42.6758C84.0391 42.3164 84.5527 42.1367 84.9941 42.1367C85.3457 42.1367 85.6191 42.2266 85.8145 42.4062C86.0137 42.5859 86.1133 42.8008 86.1133 43.0508C86.1133 43.3203 86.0312 43.707 85.8672 44.2109L85.5977 44.9609C85.5 45.2188 85.3926 45.4727 85.2754 45.7227C85.041 46.2227 84.8164 46.6484 84.6016 47ZM99.332 48.7402L97.3984 50.0352C97.1406 50.2031 96.8926 50.2871 96.6543 50.2871C96.4668 50.2871 96.332 50.2344 96.25 50.1289C96.168 50.0234 96.127 49.9082 96.127 49.7832C96.127 49.6543 96.1641 49.5215 96.2383 49.3848C96.3164 49.2168 96.4121 49.0645 96.5254 48.9277C96.6934 48.7129 96.7773 48.5371 96.7773 48.4004C96.7773 48.2715 96.7012 48.1602 96.5488 48.0664C96.2754 48.4062 96.0137 48.707 95.7637 48.9688C95.5176 49.2266 95.2715 49.4629 95.0254 49.6777C94.5605 50.084 94.1074 50.2871 93.666 50.2871C93.1465 50.2871 92.8867 49.9785 92.8867 49.3613C92.8867 49.0215 93.0234 48.6562 93.2969 48.2656C93.5703 47.875 93.9473 47.5449 94.4277 47.2754C94.9121 47.002 95.4473 46.8652 96.0332 46.8652L96.3555 46.877C96.4609 46.6426 96.5801 46.4883 96.7129 46.4141C96.8496 46.3398 96.959 46.3027 97.041 46.3027C97.3027 46.3027 97.4336 46.4551 97.4336 46.7598C97.4336 46.9551 97.3672 47.1543 97.2344 47.3574C97.6562 47.4863 97.8672 47.7578 97.8672 48.1719V48.3008C97.8672 48.3672 97.8633 48.418 97.8555 48.4531L97.8145 48.6641L97.7852 48.8926C97.7852 49.0293 97.8203 49.0977 97.8906 49.0977C97.9492 49.0977 98.0137 49.0859 98.084 49.0625L99.2383 48.5234C99.2812 48.5039 99.3223 48.4863 99.3613 48.4707C99.4043 48.4551 99.4395 48.4453 99.4668 48.4414C99.5098 48.4414 99.5371 48.4688 99.5488 48.5234C99.5488 48.5703 99.4766 48.6426 99.332 48.7402ZM96.1973 47.1289C95.8965 47.1289 95.6172 47.1895 95.3594 47.3105C95.1016 47.4277 94.8984 47.5859 94.75 47.7852C94.6055 47.9805 94.5332 48.1738 94.5332 48.3652C94.5332 48.541 94.5879 48.6719 94.6973 48.7578C94.8105 48.8398 94.9395 48.8809 95.084 48.8809C95.2051 48.8809 95.3652 48.8281 95.5645 48.7227C95.7637 48.6172 95.9473 48.4883 96.1152 48.3359C96.2832 48.1797 96.3672 48.0547 96.3672 47.9609C96.3672 47.918 96.3242 47.8398 96.2383 47.7266C96.1562 47.6094 96.1152 47.5059 96.1152 47.416C96.1152 47.3301 96.1426 47.2344 96.1973 47.1289ZM106.158 49.3613L106.012 48.4766C105.988 48.3125 105.939 48.1816 105.865 48.084C105.795 47.9824 105.721 47.9316 105.643 47.9316C105.572 47.9316 105.494 47.9629 105.408 48.0254L105.215 48.1895L105.045 48.3418L104.43 48.9277L103.867 49.4785C103.715 49.6309 103.533 49.7871 103.322 49.9473C103.15 50.0723 103.008 50.1348 102.895 50.1348C102.66 50.1348 102.543 50.0254 102.543 49.8066C102.543 49.7168 102.572 49.5918 102.631 49.4316L103.082 48.2598C103.102 48.1855 103.115 48.1348 103.123 48.1074C103.146 48.0215 103.158 47.959 103.158 47.9199C103.158 47.7441 103.086 47.6562 102.941 47.6562C102.797 47.6562 102.504 47.8535 102.062 48.248L100.85 49.373L100.234 49.959C100.129 50.0527 100.02 50.0996 99.9062 50.0996C99.6719 50.0996 99.5547 49.8613 99.5547 49.3848C99.5547 48.8965 99.5957 48.502 99.6777 48.2012C99.7637 47.8965 99.8828 47.6465 100.035 47.4512C100.191 47.252 100.4 47.0566 100.662 46.8652C101.1 46.5449 101.459 46.3848 101.74 46.3848C101.846 46.3848 101.898 46.4336 101.898 46.5312C101.898 46.5977 101.857 46.7168 101.775 46.8887L101.33 47.7676L101.225 47.9844L101.125 48.2305C101.102 48.3008 101.09 48.3711 101.09 48.4414C101.09 48.543 101.131 48.5938 101.213 48.5938C101.318 48.5938 101.559 48.4062 101.934 48.0312C102.117 47.8477 102.338 47.6484 102.596 47.4336C102.893 47.1836 103.184 46.9648 103.469 46.7773C103.758 46.5898 103.986 46.4961 104.154 46.4961C104.299 46.4961 104.418 46.5391 104.512 46.625C104.609 46.707 104.658 46.832 104.658 47C104.658 47.0664 104.654 47.1152 104.646 47.1465C104.639 47.1777 104.621 47.2324 104.594 47.3105C104.562 47.4395 104.492 47.6406 104.383 47.9141C104.277 48.1836 104.221 48.3535 104.213 48.4238C104.213 48.5293 104.24 48.582 104.295 48.582C104.33 48.582 104.395 48.5469 104.488 48.4766L105.93 47.2051C106.199 46.9473 106.443 46.8184 106.662 46.8184C106.885 46.8184 107.031 46.9043 107.102 47.0762C107.172 47.248 107.227 47.5273 107.266 47.9141C107.305 48.2969 107.348 48.5625 107.395 48.7109C107.441 48.8555 107.533 48.9277 107.67 48.9277C107.822 48.9277 108.086 48.8164 108.461 48.5938L108.73 48.4355L108.93 48.3125L109.023 48.2949C109.098 48.2949 109.135 48.334 109.135 48.4121C109.135 48.4785 109.045 48.584 108.865 48.7285C108.658 48.9043 108.188 49.2676 107.453 49.8184L107.248 49.9707L107.072 50.0762C106.982 50.1309 106.881 50.1582 106.768 50.1582C106.447 50.1582 106.244 49.8926 106.158 49.3613ZM111.83 48.8809C111.658 48.8574 111.514 48.7852 111.396 48.6641C111.287 48.5352 111.232 48.3926 111.232 48.2363C111.232 48.1113 111.275 48 111.361 47.9023C111.447 47.8047 111.576 47.7559 111.748 47.7559C111.885 47.7559 111.996 47.8242 112.082 47.9609C112.125 48.0234 112.158 48.1035 112.182 48.2012C112.205 48.2988 112.217 48.4141 112.217 48.5469C112.357 48.5469 112.496 48.502 112.633 48.4121L112.75 48.3594L112.838 48.3301C112.889 48.3301 112.916 48.3613 112.92 48.4238C112.92 48.5059 112.832 48.6055 112.656 48.7227C112.57 48.7734 112.479 48.8164 112.381 48.8516C112.33 48.8633 112.283 48.873 112.24 48.8809C112.201 48.8887 112.156 48.8926 112.105 48.8926C111.918 49.2871 111.66 49.627 111.332 49.9121C111.004 50.1973 110.635 50.3398 110.225 50.3398C109.775 50.3398 109.482 50.1973 109.346 49.9121C109.209 49.623 109.141 49.3633 109.141 49.1328C109.141 48.8477 109.209 48.5391 109.346 48.207C109.486 47.875 109.67 47.5625 109.896 47.2695C110.111 46.9922 110.344 46.7539 110.594 46.5547C110.824 46.3789 111.02 46.291 111.18 46.291C111.309 46.291 111.391 46.3457 111.426 46.4551C111.465 46.5605 111.484 46.7129 111.484 46.9121C111.484 47.0293 111.461 47.1191 111.414 47.1816C111.367 47.2441 111.262 47.3223 111.098 47.416L110.682 47.6562L110.359 47.873C110.18 48.0098 110.09 48.166 110.09 48.3418C110.09 48.5293 110.199 48.7207 110.418 48.916C110.637 49.1113 110.879 49.209 111.145 49.209C111.418 49.209 111.646 49.0996 111.83 48.8809ZM116.236 48.3066C116.088 48.5449 115.941 48.752 115.797 48.9277C115.734 49.002 115.666 49.0801 115.592 49.1621C115.521 49.2402 115.447 49.3145 115.369 49.3848C115.1 49.6309 114.85 49.7969 114.619 49.8828L114.297 49.9707C114.203 49.9863 114.133 49.9961 114.086 50C114.043 50 114.008 50 113.98 50C113.605 50 113.334 49.9082 113.166 49.7246C113.006 49.5332 112.926 49.3281 112.926 49.1094C112.926 48.8633 113.006 48.6855 113.166 48.5762C113.252 48.5215 113.332 48.4805 113.406 48.4531C113.449 48.4414 113.488 48.4316 113.523 48.4238C113.559 48.416 113.6 48.4121 113.646 48.4121C113.822 48.4121 113.91 48.4883 113.91 48.6406L113.887 48.8223L113.875 49.2676C113.875 49.4121 114 49.4844 114.25 49.4844C114.484 49.4844 114.744 49.3848 115.029 49.1855C115.318 48.9824 115.566 48.7344 115.773 48.4414L115.469 48.5117L115.158 48.5352C114.916 48.5352 114.709 48.4824 114.537 48.377C114.369 48.2715 114.285 48.0996 114.285 47.8613C114.285 47.7363 114.303 47.6152 114.338 47.498C114.373 47.3809 114.43 47.2617 114.508 47.1406C114.652 46.9141 114.854 46.7305 115.111 46.5898C115.373 46.4453 115.648 46.373 115.938 46.373C116.207 46.373 116.416 46.4355 116.564 46.5605C116.717 46.6855 116.793 46.8633 116.793 47.0938C116.793 47.418 116.68 47.7188 116.453 47.9961C116.73 47.9141 116.912 47.8457 116.998 47.791C117.084 47.7324 117.18 47.6328 117.285 47.4922C117.414 47.332 117.506 47.252 117.561 47.252C117.604 47.252 117.648 47.2891 117.695 47.3633C117.742 47.4336 117.781 47.5078 117.812 47.5859C117.812 47.7969 117.783 47.9492 117.725 48.043C117.592 48.3203 117.525 48.541 117.525 48.7051C117.525 48.8535 117.596 48.9277 117.736 48.9277C117.861 48.9277 117.98 48.8867 118.094 48.8047C118.207 48.7227 118.393 48.5605 118.65 48.3184L118.838 48.1543L118.979 48.0488C119.01 48.0293 119.045 48.0117 119.084 47.9961C119.127 47.9805 119.166 47.9727 119.201 47.9727C119.225 47.9961 119.242 48.0273 119.254 48.0664C119.254 48.1016 119.133 48.2578 118.891 48.5352L118.193 49.3145C117.553 50.0293 117.021 50.3867 116.6 50.3867C116.412 50.3867 116.275 50.3262 116.189 50.2051C116.111 50.0801 116.072 49.9434 116.072 49.7949C116.072 49.6309 116.158 49.3809 116.33 49.0449C116.502 48.709 116.68 48.4062 116.863 48.1367L116.236 48.3066ZM116.072 48.043C116.354 47.7656 116.494 47.4648 116.494 47.1406C116.494 46.8633 116.369 46.7246 116.119 46.7246C115.967 46.7246 115.826 46.791 115.697 46.9238C115.572 47.0566 115.51 47.2168 115.51 47.4043C115.51 47.5879 115.557 47.7402 115.65 47.8613C115.744 47.9824 115.885 48.043 116.072 48.043ZM125.242 48.6406L124.293 49.4082L123.812 49.8125L123.625 49.9473L123.443 50.0645C123.318 50.127 123.207 50.1582 123.109 50.1582C122.652 50.1582 122.424 49.7734 122.424 49.0039C122.424 48.8984 122.387 48.8457 122.312 48.8457L122.16 48.9043L121.979 48.9922C121.713 49.1172 121.461 49.2129 121.223 49.2793C120.988 49.3418 120.773 49.373 120.578 49.373C120.465 49.373 120.381 49.3887 120.326 49.4199C120.275 49.4512 120.215 49.541 120.145 49.6895C120.016 49.9551 119.844 50.0879 119.629 50.0879C119.492 50.0879 119.395 49.9395 119.336 49.6426C119.281 49.3418 119.254 49.0371 119.254 48.7285C119.254 47.6973 119.83 46.9453 120.982 46.4727L121.117 46.4258L121.305 46.3965C121.484 46.3965 121.574 46.4648 121.574 46.6016C121.574 46.668 121.5 46.8184 121.352 47.0527C121.207 47.2832 121.084 47.5137 120.982 47.7441C120.838 48.1191 120.766 48.3516 120.766 48.4414C120.766 48.543 120.814 48.5938 120.912 48.5938C121.205 48.5938 121.656 48.459 122.266 48.1895C122.402 48.1309 122.49 48.0723 122.529 48.0137C122.572 47.9551 122.625 47.8438 122.688 47.6797C122.781 47.4141 122.883 47.2246 122.992 47.1113C123.086 47.0059 123.191 46.9297 123.309 46.8828L123.561 46.8184L124.006 46.7129C124.049 46.7012 124.117 46.6855 124.211 46.666C124.305 46.6465 124.365 46.6367 124.393 46.6367C124.529 46.6367 124.598 46.6934 124.598 46.8066C124.598 46.9043 124.477 47.1406 124.234 47.5156C123.906 48.0156 123.742 48.375 123.742 48.5938C123.742 48.8164 123.826 48.9277 123.994 48.9277C124.135 48.9277 124.52 48.7402 125.148 48.3652C125.238 48.3184 125.303 48.2949 125.342 48.2949C125.412 48.2949 125.447 48.3301 125.447 48.4004C125.447 48.4473 125.379 48.5273 125.242 48.6406ZM128.143 48.8809C127.967 48.8574 127.82 48.7754 127.703 48.6348C127.598 48.4941 127.545 48.332 127.545 48.1484C127.545 48.0312 127.596 47.9375 127.697 47.8672C127.799 47.793 127.92 47.7559 128.061 47.7559C128.154 47.7559 128.248 47.7988 128.342 47.8848C128.439 47.9668 128.502 48.0918 128.529 48.2598C128.885 48.2598 129.16 48.1562 129.355 47.9492C129.812 47.0195 130.141 46.5547 130.34 46.5547C130.484 46.5547 130.607 46.6113 130.709 46.7246C130.814 46.8379 130.867 46.9648 130.867 47.1055C130.867 47.1797 130.764 47.3281 130.557 47.5508C130.213 47.9297 130.041 48.2461 130.041 48.5C130.041 48.6523 130.129 48.7812 130.305 48.8867C130.484 48.9883 130.688 49.0391 130.914 49.0391C131.145 49.0391 131.416 48.918 131.729 48.6758C131.756 48.6562 131.809 48.6406 131.887 48.6289C131.957 48.6289 131.992 48.6582 131.992 48.7168C131.992 48.7715 131.93 48.8555 131.805 48.9688L131.383 49.3496C130.691 49.9824 130.18 50.2988 129.848 50.2988C129.582 50.2988 129.369 50.1992 129.209 50C129.049 49.7969 128.969 49.5527 128.969 49.2676C128.969 49.1309 128.984 48.9961 129.016 48.8633C129.047 48.7266 129.1 48.5801 129.174 48.4238C128.943 48.5449 128.723 48.6055 128.512 48.6055C128.484 48.7383 128.439 48.8711 128.377 49.0039C128.314 49.1367 128.229 49.2754 128.119 49.4199C127.924 49.6855 127.686 49.9062 127.404 50.082C127.268 50.168 127.129 50.2324 126.988 50.2754C126.848 50.3184 126.697 50.3398 126.537 50.3398C126.193 50.3398 125.926 50.2246 125.734 49.9941C125.547 49.7598 125.453 49.4727 125.453 49.1328C125.453 49.0078 125.467 48.8828 125.494 48.7578C125.521 48.6289 125.57 48.4766 125.641 48.3008C125.77 47.9766 125.939 47.6582 126.15 47.3457C126.365 47.0332 126.59 46.7793 126.824 46.584C127.062 46.3887 127.285 46.291 127.492 46.291C127.617 46.291 127.701 46.3438 127.744 46.4492C127.779 46.5547 127.797 46.709 127.797 46.9121C127.797 47.0293 127.773 47.1191 127.727 47.1816C127.68 47.2441 127.574 47.3223 127.41 47.416C127.039 47.6152 126.777 47.7715 126.625 47.8848C126.477 47.998 126.402 48.1504 126.402 48.3418C126.402 48.5293 126.512 48.7207 126.73 48.916C126.949 49.1113 127.191 49.209 127.457 49.209C127.73 49.209 127.959 49.0996 128.143 48.8809ZM146.559 41.5859L146.195 42.4766L144.314 42.7637C143.955 43.7676 143.574 44.7012 143.172 45.5645C142.773 46.4277 142.332 47.2188 141.848 47.9375C141.363 48.6562 140.834 49.2324 140.26 49.666C139.686 50.0957 139.076 50.3105 138.432 50.3105C138.021 50.3105 137.648 50.2168 137.312 50.0293C136.977 49.8418 136.709 49.5742 136.51 49.2266C136.311 48.8789 136.211 48.4805 136.211 48.0312C136.211 47.4648 136.395 46.9531 136.762 46.4961C137.133 46.0352 137.607 45.6699 138.186 45.4004C138.482 45.2637 138.771 45.1582 139.053 45.084C139.193 45.0488 139.334 45.0215 139.475 45.002C139.619 44.9824 139.76 44.9727 139.896 44.9727H140.389C140.725 44.9727 140.893 45.0449 140.893 45.1895C140.893 45.252 140.852 45.3008 140.77 45.3359L140.377 45.4121C139.783 45.5137 139.283 45.7031 138.877 45.9805C138.471 46.2578 138.162 46.584 137.951 46.959C137.846 47.1426 137.768 47.3242 137.717 47.5039C137.666 47.6797 137.641 47.8633 137.641 48.0547C137.641 48.5234 137.736 48.918 137.928 49.2383C138.123 49.5547 138.391 49.7129 138.73 49.7129C139.262 49.7129 139.742 49.4805 140.172 49.0156C140.605 48.5469 140.957 48.0254 141.227 47.4512C141.355 47.1816 141.479 46.9023 141.596 46.6133C141.713 46.3242 141.822 46.0371 141.924 45.752L142.299 44.7383C142.342 44.6211 142.391 44.4961 142.445 44.3633C142.504 44.2266 142.574 44.0703 142.656 43.8945C142.836 43.5117 143.016 43.166 143.195 42.8574C142.832 42.959 142.473 43.043 142.117 43.1094C141.91 43.1445 141.707 43.1719 141.508 43.1914C141.309 43.2109 141.115 43.2207 140.928 43.2207H140.031C139.84 43.2207 139.662 43.1973 139.498 43.1504C139.412 43.127 139.332 43.0996 139.258 43.0684C139.184 43.0371 139.102 42.9961 139.012 42.9453C138.871 42.8711 138.746 42.791 138.637 42.7051C138.531 42.6191 138.432 42.5195 138.338 42.4062C138.17 42.1992 138.045 41.9941 137.963 41.791C137.885 41.584 137.846 41.4199 137.846 41.2988C137.846 41.2012 137.889 41.1523 137.975 41.1523C138.029 41.1523 138.107 41.1914 138.209 41.2695L138.443 41.457C138.49 41.4844 138.609 41.5293 138.801 41.5918C138.977 41.6387 139.252 41.6797 139.627 41.7148C140.006 41.75 140.299 41.7676 140.506 41.7676C141.244 41.7676 141.898 41.7598 142.469 41.7441C143.039 41.7285 143.521 41.7031 143.916 41.668C144.146 41.3633 144.379 41.1504 144.613 41.0293C144.73 40.9668 144.836 40.9199 144.93 40.8887C145.027 40.8574 145.117 40.8418 145.199 40.8418C145.289 40.8418 145.334 40.8984 145.334 41.0117C145.334 41.0703 145.287 41.1289 145.193 41.1875L144.977 41.3516C144.93 41.3906 144.869 41.5 144.795 41.6797C145.373 41.6797 145.961 41.6484 146.559 41.5859ZM148.275 46.5195C148.377 46.5195 148.496 46.5801 148.633 46.7012C148.875 46.9238 149.084 47.0898 149.26 47.1992C149.428 47.2891 149.615 47.334 149.822 47.334L149.998 47.3281C150.029 47.3281 150.061 47.3281 150.092 47.3281C150.123 47.3164 150.145 47.3086 150.156 47.3047L150.314 47.2754C150.314 47.3574 150.227 47.4785 150.051 47.6387C149.875 47.7988 149.615 47.918 149.271 47.9961C149.221 48.3867 149.059 48.7676 148.785 49.1387C148.512 49.5059 148.17 49.8047 147.76 50.0352C147.354 50.2695 146.945 50.3867 146.535 50.3867C146.121 50.3867 145.781 50.2656 145.516 50.0234C145.25 49.7812 145.117 49.4609 145.117 49.0625C145.117 48.6016 145.279 48.1816 145.604 47.8027C145.932 47.4238 146.303 47.123 146.717 46.9004C147.135 46.6738 147.479 46.5391 147.748 46.4961C147.865 46.4961 147.924 46.5234 147.924 46.5781C147.924 46.6367 147.902 46.6816 147.859 46.7129L147.625 46.8184C146.809 47.1309 146.4 47.5625 146.4 48.1133C146.4 48.3398 146.516 48.5586 146.746 48.7695C146.977 48.9805 147.273 49.0859 147.637 49.0859C147.957 49.0859 148.244 48.9902 148.498 48.7988C148.752 48.6035 148.922 48.3398 149.008 48.0078C148.875 48.0391 148.67 48.0547 148.393 48.0547C148.248 48.0547 148.105 48.0234 147.965 47.9609C147.828 47.8945 147.76 47.7812 147.76 47.6211C147.76 47.5312 147.783 47.3965 147.83 47.2168C147.877 47.0332 147.941 46.8711 148.023 46.7305C148.105 46.5898 148.189 46.5195 148.275 46.5195ZM150.326 47.9492L151.814 46.7129C152.014 46.5449 152.225 46.4609 152.447 46.4609C152.639 46.4609 152.734 46.625 152.734 46.9531C152.734 47.5391 152.559 48.4062 152.207 49.5547L152.822 48.5938C153.119 48.1172 153.393 47.7207 153.643 47.4043C153.893 47.084 154.164 46.8203 154.457 46.6133C154.75 46.4062 155.057 46.3027 155.377 46.3027C155.436 46.3027 155.48 46.3047 155.512 46.3086C155.543 46.3125 155.604 46.3262 155.693 46.3496C155.783 46.3691 155.879 46.4102 155.98 46.4727C156.195 46.5859 156.303 46.834 156.303 47.2168C156.303 47.5176 156.201 47.8477 155.998 48.207C155.799 48.5664 155.541 48.8945 155.225 49.1914C154.912 49.4883 154.584 49.7305 154.24 49.918C153.9 50.1016 153.592 50.1934 153.314 50.1934C153.154 50.1934 153.041 50.1172 152.975 49.9648V49.6484C153.033 49.2891 153.182 49.1094 153.42 49.1094C153.475 49.1094 153.574 49.1289 153.719 49.168L153.965 49.2617C154.109 49.3125 154.217 49.3379 154.287 49.3379C154.393 49.3379 154.504 49.2969 154.621 49.2148C154.742 49.1289 154.844 49.002 154.926 48.834C155.012 48.666 155.055 48.4707 155.055 48.248C155.055 48.0176 154.994 47.8438 154.873 47.7266C154.756 47.6094 154.627 47.5508 154.486 47.5508C154.35 47.5508 154.209 47.584 154.064 47.6504C153.924 47.7168 153.775 47.8223 153.619 47.9668C153.314 48.2402 153.033 48.6621 152.775 49.2324C152.654 49.498 152.471 50 152.225 50.7383C151.982 51.4805 151.805 52 151.691 52.2969C151.562 52.6562 151.396 52.9863 151.193 53.2871C150.994 53.5918 150.777 53.7441 150.543 53.7441C150.41 53.7441 150.287 53.6875 150.174 53.5742C150.057 53.4609 149.998 53.2988 149.998 53.0879C149.998 52.9277 150.031 52.7285 150.098 52.4902C150.164 52.252 150.32 51.9238 150.566 51.5059C150.816 51.0918 151.18 50.582 151.656 49.9766L151.662 49.5723L151.691 48.5586C151.691 48.0625 151.531 47.8145 151.211 47.8145C151.102 47.8145 150.918 47.8906 150.66 48.043L150.426 48.166L150.326 48.2129C150.279 48.2129 150.242 48.1875 150.215 48.1367C150.215 48.0742 150.252 48.0117 150.326 47.9492ZM159.971 48.3066C159.822 48.5449 159.676 48.752 159.531 48.9277C159.469 49.002 159.4 49.0801 159.326 49.1621C159.256 49.2402 159.182 49.3145 159.104 49.3848C158.834 49.6309 158.584 49.7969 158.354 49.8828L158.031 49.9707C157.938 49.9863 157.867 49.9961 157.82 50C157.777 50 157.742 50 157.715 50C157.34 50 157.068 49.9082 156.9 49.7246C156.74 49.5332 156.66 49.3281 156.66 49.1094C156.66 48.8633 156.74 48.6855 156.9 48.5762C156.986 48.5215 157.066 48.4805 157.141 48.4531C157.184 48.4414 157.223 48.4316 157.258 48.4238C157.293 48.416 157.334 48.4121 157.381 48.4121C157.557 48.4121 157.645 48.4883 157.645 48.6406L157.621 48.8223L157.609 49.2676C157.609 49.4121 157.734 49.4844 157.984 49.4844C158.219 49.4844 158.479 49.3848 158.764 49.1855C159.053 48.9824 159.301 48.7344 159.508 48.4414L159.203 48.5117L158.893 48.5352C158.65 48.5352 158.443 48.4824 158.271 48.377C158.104 48.2715 158.02 48.0996 158.02 47.8613C158.02 47.7363 158.037 47.6152 158.072 47.498C158.107 47.3809 158.164 47.2617 158.242 47.1406C158.387 46.9141 158.588 46.7305 158.846 46.5898C159.107 46.4453 159.383 46.373 159.672 46.373C159.941 46.373 160.15 46.4355 160.299 46.5605C160.451 46.6855 160.527 46.8633 160.527 47.0938C160.527 47.418 160.414 47.7188 160.188 47.9961C160.465 47.9141 160.646 47.8457 160.732 47.791C160.818 47.7324 160.914 47.6328 161.02 47.4922C161.148 47.332 161.24 47.252 161.295 47.252C161.338 47.252 161.383 47.2891 161.43 47.3633C161.477 47.4336 161.516 47.5078 161.547 47.5859C161.547 47.7969 161.518 47.9492 161.459 48.043C161.326 48.3203 161.26 48.541 161.26 48.7051C161.26 48.8535 161.33 48.9277 161.471 48.9277C161.596 48.9277 161.715 48.8867 161.828 48.8047C161.941 48.7227 162.127 48.5605 162.385 48.3184L162.572 48.1543L162.713 48.0488C162.744 48.0293 162.779 48.0117 162.818 47.9961C162.861 47.9805 162.9 47.9727 162.936 47.9727C162.959 47.9961 162.977 48.0273 162.988 48.0664C162.988 48.1016 162.867 48.2578 162.625 48.5352L161.928 49.3145C161.287 50.0293 160.756 50.3867 160.334 50.3867C160.146 50.3867 160.01 50.3262 159.924 50.2051C159.846 50.0801 159.807 49.9434 159.807 49.7949C159.807 49.6309 159.893 49.3809 160.064 49.0449C160.236 48.709 160.414 48.4062 160.598 48.1367L159.971 48.3066ZM159.807 48.043C160.088 47.7656 160.229 47.4648 160.229 47.1406C160.229 46.8633 160.104 46.7246 159.854 46.7246C159.701 46.7246 159.561 46.791 159.432 46.9238C159.307 47.0566 159.244 47.2168 159.244 47.4043C159.244 47.5879 159.291 47.7402 159.385 47.8613C159.479 47.9824 159.619 48.043 159.807 48.043ZM164.072 47.2871L163.275 47.8379C163.193 47.8848 163.127 47.9121 163.076 47.9199C163.021 47.9199 162.992 47.8926 162.988 47.8379C162.988 47.791 163.018 47.7383 163.076 47.6797L163.627 47.1641C163.58 47.1172 163.551 47.0742 163.539 47.0352C163.539 46.9492 163.648 46.8086 163.867 46.6133L164.535 46.0156C164.594 45.9609 164.664 45.918 164.746 45.8867C164.832 45.8516 164.918 45.834 165.004 45.834C165.035 45.834 165.061 45.8496 165.08 45.8809V46.0156C165.068 46.0469 165.035 46.084 164.98 46.127C164.93 46.1699 164.902 46.2168 164.898 46.2676C164.898 46.3457 165.043 46.3848 165.332 46.3848L165.607 46.3789L165.906 46.373C166.148 46.373 166.303 46.3984 166.369 46.4492C166.436 46.4961 166.469 46.5996 166.469 46.7598C166.445 46.9199 166.414 47.0273 166.375 47.082C166.363 47.1172 166.32 47.1582 166.246 47.2051L166.088 47.3105C165.35 47.7559 164.98 48.1191 164.98 48.4004C164.98 48.6035 165.096 48.791 165.326 48.9629C165.557 49.1348 165.803 49.2207 166.064 49.2207C166.322 49.2207 166.686 49.0156 167.154 48.6055C167.213 48.5586 167.273 48.5312 167.336 48.5234C167.379 48.5234 167.406 48.5469 167.418 48.5938C167.418 48.6523 167.387 48.7129 167.324 48.7754C167.176 48.9277 167.004 49.0898 166.809 49.2617C166.613 49.4336 166.398 49.6094 166.164 49.7891C165.691 50.1484 165.297 50.3281 164.98 50.3281C164.738 50.3281 164.508 50.2305 164.289 50.0352C164.07 49.8398 163.961 49.5879 163.961 49.2793C163.961 49.0176 164.033 48.793 164.178 48.6055C164.326 48.4141 164.529 48.207 164.787 47.9844C165.08 47.7266 165.229 47.5664 165.232 47.5039C165.232 47.3594 164.846 47.2871 164.072 47.2871ZM170.383 49.9766L169.398 48.3887C169.047 48.7402 168.711 49.168 168.391 49.6719C168.254 49.8906 168.143 50 168.057 50C167.939 50 167.801 49.9414 167.641 49.8242C167.492 49.707 167.418 49.5332 167.418 49.3027C167.418 49.0488 167.516 48.666 167.711 48.1543C167.906 47.6387 168.133 47.168 168.391 46.7422C168.652 46.3125 168.861 46.0977 169.018 46.0977C169.143 46.0977 169.277 46.1621 169.422 46.291C169.566 46.416 169.639 46.5352 169.639 46.6484C169.639 46.6992 169.625 46.752 169.598 46.8066L169.492 46.9648L169.311 47.1699L169.123 47.3691L168.865 47.6562L168.707 47.8496C168.641 47.9395 168.607 48.0391 168.607 48.1484C168.607 48.3477 168.668 48.5156 168.789 48.6523C170.449 46.9727 171.592 46.1328 172.217 46.1328C172.369 46.1328 172.498 46.1797 172.604 46.2734C172.709 46.3633 172.762 46.4883 172.762 46.6484C172.762 46.9023 172.631 47.1113 172.369 47.2754C172.107 47.4355 171.773 47.5156 171.367 47.5156H171.186H170.887C170.613 47.5156 170.477 47.543 170.477 47.5977C170.477 47.6328 170.506 47.6973 170.564 47.791L171.344 48.9688L171.578 49.2441C171.641 49.2988 171.723 49.3262 171.824 49.3262C172.047 49.3262 172.502 49.1426 173.189 48.7754L173.477 48.6406C173.539 48.6406 173.576 48.6699 173.588 48.7285C173.588 48.8105 173.02 49.25 171.883 50.0469C171.562 50.2734 171.307 50.3867 171.115 50.3867C170.803 50.3867 170.559 50.25 170.383 49.9766ZM176.594 49.0625C175.848 49.9219 175.184 50.3516 174.602 50.3516C174.352 50.3516 174.121 50.248 173.91 50.041C173.699 49.834 173.594 49.5645 173.594 49.2324C173.594 48.9395 173.711 48.5684 173.945 48.1191C174.184 47.6699 174.453 47.2832 174.754 46.959C175.055 46.6348 175.301 46.4727 175.492 46.4727C175.602 46.4727 175.713 46.5176 175.826 46.6074C175.939 46.6973 175.996 46.8086 175.996 46.9414C175.996 47.1953 175.688 47.5312 175.07 47.9492C174.832 48.1055 174.713 48.2695 174.713 48.4414C174.713 48.5781 174.812 48.7051 175.012 48.8223C175.215 48.9355 175.467 48.9922 175.768 48.9922C175.92 48.9922 176.076 48.9609 176.236 48.8984C176.396 48.832 176.594 48.6855 176.828 48.459C177.066 48.2324 177.328 47.9141 177.613 47.5039C177.801 47.2383 177.955 47.043 178.076 46.918C178.201 46.7891 178.344 46.7246 178.504 46.7246C178.621 46.7246 178.732 46.7637 178.838 46.8418C178.951 46.9121 179.008 47.0039 179.008 47.1172C179.008 47.3203 178.787 47.625 178.346 48.0312C178.061 48.293 177.918 48.4648 177.918 48.5469C177.918 48.6484 177.998 48.748 178.158 48.8457C178.322 48.9434 178.484 48.9922 178.645 48.9922C178.973 48.9922 179.346 48.8203 179.764 48.4766C179.854 48.3945 179.918 48.3496 179.957 48.3418C180.043 48.3418 180.086 48.3789 180.086 48.4531C180.086 48.5234 179.783 48.8145 179.178 49.3262L178.668 49.7246C178.59 49.7832 178.51 49.8418 178.428 49.9004C178.35 49.9551 178.279 50.002 178.217 50.041C177.951 50.2051 177.715 50.2871 177.508 50.2871C177.277 50.2871 177.07 50.1758 176.887 49.9531C176.801 49.8438 176.729 49.7129 176.67 49.5605C176.619 49.3965 176.594 49.2305 176.594 49.0625ZM186.074 48.6406L185.125 49.4082L184.645 49.8125L184.457 49.9473L184.275 50.0645C184.15 50.127 184.039 50.1582 183.941 50.1582C183.484 50.1582 183.256 49.7734 183.256 49.0039C183.256 48.8984 183.219 48.8457 183.145 48.8457L182.992 48.9043L182.811 48.9922C182.545 49.1172 182.293 49.2129 182.055 49.2793C181.82 49.3418 181.605 49.373 181.41 49.373C181.297 49.373 181.213 49.3887 181.158 49.4199C181.107 49.4512 181.047 49.541 180.977 49.6895C180.848 49.9551 180.676 50.0879 180.461 50.0879C180.324 50.0879 180.227 49.9395 180.168 49.6426C180.113 49.3418 180.086 49.0371 180.086 48.7285C180.086 47.6973 180.662 46.9453 181.814 46.4727L181.949 46.4258L182.137 46.3965C182.316 46.3965 182.406 46.4648 182.406 46.6016C182.406 46.668 182.332 46.8184 182.184 47.0527C182.039 47.2832 181.916 47.5137 181.814 47.7441C181.67 48.1191 181.598 48.3516 181.598 48.4414C181.598 48.543 181.646 48.5938 181.744 48.5938C182.037 48.5938 182.488 48.459 183.098 48.1895C183.234 48.1309 183.322 48.0723 183.361 48.0137C183.404 47.9551 183.457 47.8438 183.52 47.6797C183.613 47.4141 183.715 47.2246 183.824 47.1113C183.918 47.0059 184.023 46.9297 184.141 46.8828L184.393 46.8184L184.838 46.7129C184.881 46.7012 184.949 46.6855 185.043 46.666C185.137 46.6465 185.197 46.6367 185.225 46.6367C185.361 46.6367 185.43 46.6934 185.43 46.8066C185.43 46.9043 185.309 47.1406 185.066 47.5156C184.738 48.0156 184.574 48.375 184.574 48.5938C184.574 48.8164 184.658 48.9277 184.826 48.9277C184.967 48.9277 185.352 48.7402 185.98 48.3652C186.07 48.3184 186.135 48.2949 186.174 48.2949C186.244 48.2949 186.279 48.3301 186.279 48.4004C186.279 48.4473 186.211 48.5273 186.074 48.6406ZM189.443 46.5195C189.545 46.5195 189.664 46.5801 189.801 46.7012C190.043 46.9238 190.252 47.0898 190.428 47.1992C190.596 47.2891 190.783 47.334 190.99 47.334L191.166 47.3281C191.197 47.3281 191.229 47.3281 191.26 47.3281C191.291 47.3164 191.312 47.3086 191.324 47.3047L191.482 47.2754C191.482 47.3574 191.395 47.4785 191.219 47.6387C191.043 47.7988 190.783 47.918 190.439 47.9961C190.389 48.3867 190.227 48.7676 189.953 49.1387C189.68 49.5059 189.338 49.8047 188.928 50.0352C188.521 50.2695 188.113 50.3867 187.703 50.3867C187.289 50.3867 186.949 50.2656 186.684 50.0234C186.418 49.7812 186.285 49.4609 186.285 49.0625C186.285 48.6016 186.447 48.1816 186.771 47.8027C187.1 47.4238 187.471 47.123 187.885 46.9004C188.303 46.6738 188.646 46.5391 188.916 46.4961C189.033 46.4961 189.092 46.5234 189.092 46.5781C189.092 46.6367 189.07 46.6816 189.027 46.7129L188.793 46.8184C187.977 47.1309 187.568 47.5625 187.568 48.1133C187.568 48.3398 187.684 48.5586 187.914 48.7695C188.145 48.9805 188.441 49.0859 188.805 49.0859C189.125 49.0859 189.412 48.9902 189.666 48.7988C189.92 48.6035 190.09 48.3398 190.176 48.0078C190.043 48.0391 189.838 48.0547 189.561 48.0547C189.416 48.0547 189.273 48.0234 189.133 47.9609C188.996 47.8945 188.928 47.7812 188.928 47.6211C188.928 47.5312 188.951 47.3965 188.998 47.2168C189.045 47.0332 189.109 46.8711 189.191 46.7305C189.273 46.5898 189.357 46.5195 189.443 46.5195ZM194.371 49.0625C193.625 49.9219 192.961 50.3516 192.379 50.3516C192.129 50.3516 191.898 50.248 191.688 50.041C191.477 49.834 191.371 49.5645 191.371 49.2324C191.371 48.9395 191.488 48.5684 191.723 48.1191C191.961 47.6699 192.23 47.2832 192.531 46.959C192.832 46.6348 193.078 46.4727 193.27 46.4727C193.379 46.4727 193.49 46.5176 193.604 46.6074C193.717 46.6973 193.773 46.8086 193.773 46.9414C193.773 47.1953 193.465 47.5312 192.848 47.9492C192.609 48.1055 192.49 48.2695 192.49 48.4414C192.49 48.5781 192.59 48.7051 192.789 48.8223C192.992 48.9355 193.244 48.9922 193.545 48.9922C193.697 48.9922 193.854 48.9609 194.014 48.8984C194.174 48.832 194.371 48.6855 194.605 48.459C194.844 48.2324 195.105 47.9141 195.391 47.5039C195.578 47.2383 195.732 47.043 195.854 46.918C195.979 46.7891 196.121 46.7246 196.281 46.7246C196.398 46.7246 196.51 46.7637 196.615 46.8418C196.729 46.9121 196.785 47.0039 196.785 47.1172C196.785 47.3203 196.564 47.625 196.123 48.0312C195.838 48.293 195.695 48.4648 195.695 48.5469C195.695 48.6484 195.775 48.748 195.936 48.8457C196.1 48.9434 196.262 48.9922 196.422 48.9922C196.75 48.9922 197.123 48.8203 197.541 48.4766C197.631 48.3945 197.695 48.3496 197.734 48.3418C197.82 48.3418 197.863 48.3789 197.863 48.4531C197.863 48.5234 197.561 48.8145 196.955 49.3262L196.445 49.7246C196.367 49.7832 196.287 49.8418 196.205 49.9004C196.127 49.9551 196.057 50.002 195.994 50.041C195.729 50.2051 195.492 50.2871 195.285 50.2871C195.055 50.2871 194.848 50.1758 194.664 49.9531C194.578 49.8438 194.506 49.7129 194.447 49.5605C194.396 49.3965 194.371 49.2305 194.371 49.0625ZM196.738 45.0898C196.547 45.3867 196.295 45.6523 195.982 45.8867C195.674 46.1172 195.373 46.2324 195.08 46.2324C194.857 46.2324 194.672 46.1621 194.523 46.0215C194.375 45.877 194.301 45.6992 194.301 45.4883C194.301 45.3008 194.377 45.0371 194.529 44.6973L194.611 44.5156L194.699 44.3398C194.723 44.3008 194.738 44.2773 194.746 44.2695C194.754 44.2578 194.773 44.2383 194.805 44.2109C194.836 44.1797 194.875 44.1641 194.922 44.1641C195.004 44.1641 195.045 44.2129 195.045 44.3105C195.045 44.3379 195.029 44.377 194.998 44.4277C194.928 44.5605 194.887 44.6445 194.875 44.6797C194.875 44.7969 194.975 44.9297 195.174 45.0781C195.373 45.2227 195.625 45.2949 195.93 45.2949C196.137 45.2949 196.406 45.2266 196.738 45.0898Z" fill="#F8F8F8"/>
<path d="M47.12 25.72L47.56 25.52C47.2 29.56 49.12 31.84 51.96 31.84C54 31.84 55.56 30.44 55.56 27C55.56 25.12 55 23.64 53.72 22.48C52.84 21.72 51 20.12 49.68 18.84C47.88 17.08 47.32 15.16 47.32 13.08C47.32 9.68 49.28 6.72 53 6.72C54.72 6.72 55.8 7.36 56.44 8.04L56.96 6.52L57.36 6.64C57.04 9 56.84 11.84 56.84 12.72H56.36C56.56 9.08 54.8 7.28 52.92 7.28C50.88 7.28 49.52 9 49.52 11.96C49.52 13.36 49.96 15 51.52 16.44C53.72 18.36 54.96 19.48 55.96 20.36C57.36 21.6 58.04 23.44 58.04 25.44C58.04 29.48 55.68 32.48 51.56 32.48C49.64 32.48 47.96 31.8 46.88 31.12C47.12 28.72 47.04 26.64 47.12 25.72ZM59.0078 40.88L59.1678 40.4C60.6878 40.28 61.0478 40.12 61.0878 39.32C61.1678 37.88 61.2878 35.48 61.2878 31.2V21.36C61.2878 18.68 61.2078 17.12 61.2078 16.36C61.2078 15.76 61.0078 15.6 59.4078 15.76L59.5678 15.36C60.7678 15.24 62.6478 15.04 63.8078 14.68C63.7678 15.68 63.7678 16.88 63.8078 17.44C65.2478 15.8 66.4478 14.72 68.1278 14.72C69.7678 14.72 70.7678 15.64 71.5278 16.96C72.2878 18.28 72.6478 20.32 72.6478 22.76C72.6478 27.96 71.0078 32.48 66.3278 32.48C65.1278 32.48 64.1678 31.88 63.7678 31.44C63.7278 34.24 63.6878 36.92 63.8478 39.08C63.9278 40.08 64.2878 40.16 66.0078 40.28L65.8878 40.72C65.2478 40.72 64.1278 40.64 62.6078 40.64C61.0478 40.64 60.0078 40.76 59.0078 40.88ZM66.3278 31.96H66.3678C69.4478 31.96 69.8878 26.72 69.8878 23.36C69.8878 21.24 69.6078 18.96 69.0478 17.72C68.5678 16.64 67.9278 15.96 66.8078 15.96C65.8878 15.96 64.7678 16.72 64.0878 18.04C63.9278 18.36 63.8078 18.68 63.8078 19.24C63.7678 24.4 63.7278 26 63.8078 29.2C63.8078 29.6 63.8878 29.96 64.1278 30.36C64.6078 31.24 65.4878 31.96 66.3278 31.96ZM85.3659 28.28C84.7659 30.84 83.4059 32.48 80.6859 32.48C78.4859 32.48 77.1659 31.52 76.2459 29.88C75.5659 28.6 75.1259 26.24 75.1259 24.16C75.1259 19.96 76.4459 14.72 80.9659 14.72C84.8459 14.72 85.4859 18.92 85.4459 20.88C85.4459 21.48 85.2859 22.36 85.0059 22.52C84.4459 22.76 82.4459 22.84 80.2859 22.84C79.5259 22.84 78.7659 22.84 77.9259 22.84C77.7659 26.16 78.3659 28.48 78.9659 29.56C79.6059 30.84 80.4059 31.44 81.5659 31.44C83.2459 31.44 84.2459 30.44 84.9659 28.08L85.3659 28.28ZM80.7659 15.24H80.7259C78.7659 15.24 78.0859 19.48 78.0059 22.28C78.6459 22.28 79.2859 22.28 79.9259 22.28C80.8059 22.28 81.6859 22.24 82.2459 22.12C82.7259 22.04 82.9659 21.6 82.9659 20.44C82.9659 19.2 83.0859 15.24 80.7659 15.24ZM97.7878 28.28C97.1878 30.84 95.8278 32.48 93.1078 32.48C90.9078 32.48 89.5878 31.52 88.6678 29.88C87.9878 28.6 87.5478 26.24 87.5478 24.16C87.5478 19.96 88.8678 14.72 93.3878 14.72C97.2678 14.72 97.9078 18.92 97.8678 20.88C97.8678 21.48 97.7078 22.36 97.4278 22.52C96.8678 22.76 94.8678 22.84 92.7078 22.84C91.9478 22.84 91.1878 22.84 90.3478 22.84C90.1878 26.16 90.7878 28.48 91.3878 29.56C92.0278 30.84 92.8278 31.44 93.9878 31.44C95.6678 31.44 96.6678 30.44 97.3878 28.08L97.7878 28.28ZM93.1878 15.24H93.1478C91.1878 15.24 90.5078 19.48 90.4278 22.28C91.0678 22.28 91.7078 22.28 92.3478 22.28C93.2278 22.28 94.1078 22.24 94.6678 22.12C95.1478 22.04 95.3878 21.6 95.3878 20.44C95.3878 19.2 95.5078 15.24 93.1878 15.24ZM110.01 28.12L110.41 28.36C109.81 30.64 108.45 32.48 105.65 32.48C103.65 32.48 102.25 31.64 101.37 30.16C100.57 28.8 99.9697 26.96 99.9697 23.76C99.9697 19.68 101.89 14.72 106.49 14.72C108.73 14.72 110.29 16.12 110.29 18.12C110.29 19.24 109.65 19.8 108.97 19.8C108.73 19.8 108.49 19.76 108.29 19.64C107.97 19.4 107.89 19.04 107.97 18.6C108.05 18.28 108.17 17.8 108.17 17.52C108.17 16.08 107.65 15.24 106.29 15.24C104.05 15.24 102.77 18.68 102.77 23.52C102.77 25.68 103.13 27.76 103.73 29.08C104.33 30.48 105.21 31.4 106.65 31.4C108.45 31.4 109.37 30.12 110.01 28.12ZM111.402 5.68L111.362 5.32C112.762 5.32 115.042 5.08 115.882 4.92C115.762 6.84 115.722 9.88 115.722 13.24V17.24C116.802 16 118.202 14.72 120.322 14.72C121.922 14.72 122.762 15.6 123.082 16.12C123.522 16.8 123.642 17.84 123.642 18.96C123.642 22.96 123.642 28 123.682 30.68C123.682 31.48 123.802 31.6 125.322 31.68L125.242 32.12C124.842 32.12 123.602 32 122.282 32C120.962 32 119.722 32.12 119.362 32.12L119.402 31.68C120.522 31.64 120.922 31.44 120.962 30.76C121.002 30 121.122 27.88 121.122 24.48C121.122 18.52 121.042 18.28 120.922 17.8C120.722 16.8 120.202 15.92 118.922 15.92C117.722 15.92 116.602 16.6 116.002 17.84C115.762 18.36 115.722 18.8 115.722 19.52V26.32C115.722 28.28 115.762 29.72 115.802 30.64C115.882 31.48 116.322 31.6 117.442 31.68V32.12C116.762 32.12 115.082 32 114.122 32C113.042 32 111.962 32.12 111.442 32.12V31.68C112.682 31.64 113.042 31.44 113.082 30.68C113.202 29.2 113.202 27.72 113.202 24.48V13.16C113.202 9.12 113.202 7.4 113.082 6.36C113.042 5.8 112.682 5.68 111.402 5.68ZM137.041 28.12L137.441 28.36C136.841 30.64 135.481 32.48 132.681 32.48C130.681 32.48 129.281 31.64 128.401 30.16C127.601 28.8 127.001 26.96 127.001 23.76C127.001 19.68 128.921 14.72 133.521 14.72C135.761 14.72 137.321 16.12 137.321 18.12C137.321 19.24 136.681 19.8 136.001 19.8C135.761 19.8 135.521 19.76 135.321 19.64C135.001 19.4 134.921 19.04 135.001 18.6C135.081 18.28 135.201 17.8 135.201 17.52C135.201 16.08 134.681 15.24 133.321 15.24C131.081 15.24 129.801 18.68 129.801 23.52C129.801 25.68 130.161 27.76 130.761 29.08C131.361 30.48 132.241 31.4 133.681 31.4C135.481 31.4 136.401 30.12 137.041 28.12ZM149.428 28.28C148.828 30.84 147.468 32.48 144.748 32.48C142.548 32.48 141.228 31.52 140.308 29.88C139.628 28.6 139.188 26.24 139.188 24.16C139.188 19.96 140.508 14.72 145.028 14.72C148.908 14.72 149.548 18.92 149.508 20.88C149.508 21.48 149.348 22.36 149.068 22.52C148.508 22.76 146.508 22.84 144.348 22.84C143.588 22.84 142.828 22.84 141.988 22.84C141.828 26.16 142.428 28.48 143.028 29.56C143.668 30.84 144.468 31.44 145.628 31.44C147.308 31.44 148.308 30.44 149.028 28.08L149.428 28.28ZM144.828 15.24H144.788C142.828 15.24 142.148 19.48 142.068 22.28C142.708 22.28 143.348 22.28 143.988 22.28C144.868 22.28 145.748 22.24 146.308 22.12C146.788 22.04 147.028 21.6 147.028 20.44C147.028 19.2 147.148 15.24 144.828 15.24ZM150.976 32.12V31.68C152.376 31.64 152.776 31.48 152.816 30.44C152.896 29.16 152.936 27.52 152.936 26.16V21.52C152.936 19.2 152.896 17.6 152.856 16.48C152.816 15.88 152.536 15.8 151.096 15.84V15.4C152.296 15.4 154.136 15.2 155.296 14.88C155.376 15.72 155.456 16.72 155.496 17.32C156.616 16.08 158.016 14.72 159.936 14.72C161.656 14.72 162.576 15.56 163.016 16.64C163.256 17.2 163.376 17.8 163.376 18.52V30.64C163.376 31.44 163.656 31.56 165.176 31.68L165.096 32.12C164.336 32.12 163.256 32 161.856 32C160.496 32 159.416 32.12 158.976 32.12L159.056 31.68C160.256 31.64 160.656 31.4 160.696 30.68C160.776 29.92 160.856 27.96 160.856 24.2C160.856 18.44 160.816 18.16 160.616 17.6C160.336 16.64 159.736 16.04 158.616 16.04C157.336 16.04 156.336 16.8 155.776 17.96C155.496 18.52 155.456 18.8 155.456 19.56V26.12C155.456 27.56 155.456 29.64 155.536 30.48C155.656 31.4 155.936 31.56 157.296 31.68L157.136 32.12C156.736 32.12 154.856 32 153.936 32C152.936 32 151.616 32.08 150.976 32.12ZM170.649 15.2H174.529L174.369 15.72L170.609 15.96C170.569 17.32 170.489 19.8 170.489 22.92C170.489 27.8 170.529 29.32 170.649 30.28C170.769 31.12 171.329 31.56 172.049 31.56C173.249 31.56 174.209 30.28 174.529 28.36H174.729L174.969 29.12C174.329 31.16 172.929 32.48 170.889 32.48C169.769 32.48 168.929 32.16 168.449 31.64C168.049 31.16 167.849 30.48 167.849 29.4C167.849 25.72 168.009 19.4 168.009 15.96L165.849 15.72L165.969 15.2H168.089C168.089 13.96 168.089 12.6 168.089 11.6C169.209 11 170.089 10.4 170.609 9.96L170.809 10C170.809 10.8 170.649 13.4 170.649 15.2ZM186.46 28.28C185.86 30.84 184.5 32.48 181.78 32.48C179.58 32.48 178.26 31.52 177.34 29.88C176.66 28.6 176.22 26.24 176.22 24.16C176.22 19.96 177.54 14.72 182.06 14.72C185.94 14.72 186.58 18.92 186.54 20.88C186.54 21.48 186.38 22.36 186.1 22.52C185.54 22.76 183.54 22.84 181.38 22.84C180.62 22.84 179.86 22.84 179.02 22.84C178.86 26.16 179.46 28.48 180.06 29.56C180.7 30.84 181.5 31.44 182.66 31.44C184.34 31.44 185.34 30.44 186.06 28.08L186.46 28.28ZM181.86 15.24H181.82C179.86 15.24 179.18 19.48 179.1 22.28C179.74 22.28 180.38 22.28 181.02 22.28C181.9 22.28 182.78 22.24 183.34 22.12C183.82 22.04 184.06 21.6 184.06 20.44C184.06 19.2 184.18 15.24 181.86 15.24ZM189.967 25.8V21.6C189.967 18.6 189.807 17.08 189.687 16.48C189.607 16.08 189.407 15.92 189.047 15.92H188.047L188.127 15.52C189.087 15.4 191.207 15.16 192.047 14.88L192.167 14.96C192.287 16.04 192.367 17.8 192.367 18.52H192.447C193.087 16.52 194.127 14.72 195.887 14.72C196.727 14.72 197.527 15.24 197.527 16.44C197.527 17.72 196.647 18.04 196.287 18.04C195.927 18.04 195.447 17.92 195.407 17.56C195.247 16.8 195.087 16.52 194.527 16.52C193.807 16.52 193.207 17.72 192.807 19C192.567 19.84 192.487 20.52 192.487 21.76C192.487 27.68 192.487 29.56 192.567 30.64C192.607 31.4 192.767 31.6 194.727 31.68L194.647 32.12C193.927 32.12 192.407 32 191.087 32C189.807 32 188.807 32.12 188.047 32.12L188.127 31.68C189.487 31.64 189.687 31.4 189.767 30.76C189.887 29.8 189.967 28.12 189.967 25.8Z" fill="#F8F8F8"/>
</svg>
