<svg width="20" height="21" viewBox="0 0 20 21" fill="none" xmlns="http://www.w3.org/2000/svg">
<g clip-path="url(#clip0_1_405)">
<path d="M10.0002 11.3128C11.8588 11.3128 13.3656 9.80609 13.3656 7.94743C13.3656 6.08877 11.8588 4.58203 10.0002 4.58203C8.1415 4.58203 6.63477 6.08877 6.63477 7.94743C6.63477 9.80609 8.1415 11.3128 10.0002 11.3128Z" fill="#F8F8F8"/>
<path d="M10.0003 20.5C10.0003 20.5 17.4478 12.0607 17.4478 7.9476C17.4478 3.83442 14.1135 0.5 10.0003 0.5C5.88715 0.5 2.55273 3.83442 2.55273 7.94756C2.55273 12.0607 10.0003 20.5 10.0003 20.5ZM10.0003 2.80521C12.8399 2.80521 15.1423 5.10718 15.1423 7.94722C15.1423 10.7873 12.8399 13.0892 10.0003 13.0892C7.16067 13.0892 4.85836 10.7872 4.85836 7.94722C4.85836 5.10722 7.16067 2.80521 10.0003 2.80521Z" fill="#F8F8F8"/>
</g>
<defs>
<clipPath id="clip0_1_405">
<rect width="20" height="20" fill="white" transform="translate(0 0.5)"/>
</clipPath>
</defs>
</svg>
