<svg width="16" height="20" viewBox="0 0 16 20" fill="none" xmlns="http://www.w3.org/2000/svg">
<path d="M8.00016 10.8126C9.85882 10.8126 11.3656 9.3059 11.3656 7.44724C11.3656 5.58859 9.85882 4.08185 8.00016 4.08185C6.1415 4.08185 4.63477 5.58859 4.63477 7.44724C4.63477 9.3059 6.1415 10.8126 8.00016 10.8126Z" fill="#232323"/>
<path d="M8.00033 20C8.00033 20 15.4478 11.5607 15.4478 7.4476C15.4478 3.33442 12.1135 0 8.00033 0C3.88715 0 0.552734 3.33442 0.552734 7.44756C0.552734 11.5607 8.00033 20 8.00033 20ZM8.00033 2.30521C10.8399 2.30521 13.1423 4.60718 13.1423 7.44722C13.1423 10.2873 10.8399 12.5892 8.00033 12.5892C5.16067 12.5892 2.85836 10.2872 2.85836 7.44722C2.85836 4.60722 5.16067 2.30521 8.00033 2.30521Z" fill="#232323"/>
</svg>
