<svg width="44" height="45" viewBox="0 0 44 45" fill="none" xmlns="http://www.w3.org/2000/svg">
<path d="M16.4996 30.145L10.1379 23.7834C9.79516 23.4406 9.33023 23.248 8.84545 23.248C8.36067 23.248 7.89574 23.4406 7.55295 23.7834C7.21016 24.1261 7.01758 24.5911 7.01758 25.0759C7.01758 25.3159 7.06486 25.5536 7.15672 25.7753C7.24858 25.9971 7.38322 26.1986 7.55295 26.3684L15.2163 34.0317C15.9313 34.7467 17.0863 34.7467 17.8013 34.0317L37.198 14.635C37.5407 14.2922 37.7333 13.8273 37.7333 13.3425C37.7333 12.8577 37.5407 12.3928 37.198 12.05C36.8552 11.7072 36.3902 11.5146 35.9054 11.5146C35.4207 11.5146 34.9557 11.7072 34.6129 12.05L16.4996 30.145Z" fill="#71A4D7"/>
</svg>
