<svg width="64" height="64" viewBox="0 0 64 64" fill="none" xmlns="http://www.w3.org/2000/svg">
<path d="M17.8613 31.8233C17.6214 31.549 17.3298 31.3246 17.0033 31.1631C16.6767 31.0016 16.3216 30.9059 15.9581 30.8817C15.5946 30.8575 15.2299 30.9052 14.8849 31.022C14.5398 31.1388 14.2211 31.3225 13.947 31.5626C13.6728 31.8026 13.4487 32.0944 13.2872 32.4211C13.1258 32.7479 13.0302 33.1032 13.006 33.4669C12.9818 33.8306 13.0295 34.1955 13.1462 34.5408C13.263 34.8861 13.4465 35.205 13.6864 35.4793L23.3954 46.5833C23.65 46.8754 23.9628 47.1108 24.3138 47.2745C24.6647 47.4383 25.0461 47.5266 25.4333 47.534C25.8205 47.5413 26.2049 47.4674 26.5618 47.3171C26.9187 47.1667 27.2402 46.9433 27.5056 46.6611L51.0854 21.681C51.5906 21.1459 51.8626 20.432 51.8416 19.6962C51.8207 18.9605 51.5085 18.2632 50.9738 17.7578C50.4391 17.2524 49.7256 16.9802 48.9903 17.0011C48.255 17.0221 47.5581 17.3344 47.053 17.8695L25.567 40.6379L17.8613 31.8233Z" fill="#16961B"/>
<path d="M0 31.5733C0 25.3287 1.85062 19.2243 5.31784 14.0321C8.78506 8.83991 13.7132 4.79309 19.4789 2.40338C25.2447 0.01368 31.5892 -0.611575 37.7101 0.606685C43.831 1.82495 49.4534 4.83201 53.8664 9.2476C58.2793 13.6632 61.2846 19.289 62.5021 25.4136C63.7196 31.5382 63.0947 37.8866 60.7065 43.6558C58.3182 49.4251 54.2738 54.3561 49.0848 57.8254C43.8957 61.2948 37.795 63.1465 31.5542 63.1465C23.1884 63.1371 15.1679 59.8076 9.25242 53.8885C3.3369 47.9694 0.0094224 39.9441 0 31.5733ZM4.85449 31.5733C4.85449 36.8571 6.4204 42.0224 9.3542 46.4158C12.288 50.8092 16.4579 54.2334 21.3367 56.2555C26.2154 58.2775 31.5838 58.8066 36.7631 57.7757C41.9423 56.7449 46.6997 54.2005 50.4337 50.4642C54.1678 46.7279 56.7107 41.9676 57.7409 36.7853C58.7711 31.6029 58.2423 26.2312 56.2215 21.3496C54.2007 16.4679 50.7785 12.2954 46.3878 9.35986C41.997 6.42429 36.8349 4.85744 31.5542 4.85744C24.4754 4.86515 17.6887 7.68232 12.6832 12.6908C7.67767 17.6994 4.8622 24.4901 4.85449 31.5733Z" fill="#16961B"/>
</svg>
