<svg width="64" height="64" viewBox="0 0 64 64" fill="none" xmlns="http://www.w3.org/2000/svg">
<path d="M0 31.5733C0 25.3287 1.85062 19.2243 5.31784 14.0321C8.78506 8.83991 13.7132 4.79309 19.4789 2.40338C25.2447 0.01368 31.5892 -0.611575 37.7101 0.606685C43.831 1.82495 49.4534 4.83201 53.8664 9.2476C58.2793 13.6632 61.2846 19.289 62.5021 25.4136C63.7196 31.5382 63.0947 37.8866 60.7065 43.6558C58.3182 49.4251 54.2738 54.3561 49.0848 57.8254C43.8957 61.2948 37.795 63.1465 31.5542 63.1465C23.1884 63.1371 15.1679 59.8076 9.25242 53.8885C3.3369 47.9694 0.0094224 39.9441 0 31.5733ZM4.85449 31.5733C4.85449 36.8571 6.4204 42.0224 9.3542 46.4158C12.288 50.8092 16.4579 54.2334 21.3367 56.2555C26.2154 58.2775 31.5838 58.8066 36.7631 57.7757C41.9423 56.7449 46.6997 54.2005 50.4337 50.4642C54.1678 46.7279 56.7107 41.9676 57.7409 36.7853C58.7711 31.6029 58.2423 26.2312 56.2215 21.3496C54.2007 16.4679 50.7785 12.2954 46.3878 9.35986C41.997 6.42429 36.8349 4.85744 31.5542 4.85744C24.4754 4.86515 17.6887 7.68232 12.6832 12.6908C7.67767 17.6994 4.8622 24.4901 4.85449 31.5733ZM19.3209 43.0044C18.8663 42.549 18.611 41.9317 18.611 41.2881C18.611 40.6445 18.8663 40.0272 19.3209 39.5718L27.3146 31.5733L19.3209 23.5779C19.0954 23.3523 18.9166 23.0845 18.7945 22.7898C18.6725 22.495 18.6097 22.1791 18.6097 21.86C18.6097 21.2157 18.8655 20.5977 19.3209 20.1421C19.7762 19.6865 20.3938 19.4305 21.0378 19.4305C21.6817 19.4305 22.2993 19.6865 22.7546 20.1421L30.7451 28.1374L38.7388 20.1389C38.9629 19.907 39.2308 19.7221 39.527 19.595C39.8232 19.4678 40.1417 19.401 40.464 19.3983C40.7863 19.3957 41.1059 19.4573 41.4041 19.5796C41.7023 19.7018 41.9733 19.8823 42.2011 20.1104C42.4289 20.3386 42.609 20.6098 42.7309 20.9084C42.8528 21.2069 42.914 21.5267 42.9111 21.8492C42.9081 22.1717 42.841 22.4904 42.7137 22.7866C42.5863 23.0829 42.4013 23.3508 42.1693 23.5747L34.1789 31.5733L42.1726 39.5718C42.4111 39.7942 42.6023 40.0623 42.735 40.3602C42.8677 40.6581 42.939 40.9797 42.9447 41.3058C42.9505 41.6319 42.8905 41.9559 42.7685 42.2583C42.6464 42.5607 42.4647 42.8354 42.2342 43.066C42.0037 43.2967 41.7292 43.4785 41.4269 43.6006C41.1247 43.7228 40.801 43.7828 40.4751 43.777C40.1492 43.7713 39.8277 43.6999 39.53 43.5671C39.2323 43.4344 38.9643 43.243 38.7421 43.0044L30.7451 35.0091L22.7514 43.0076C22.526 43.2333 22.2583 43.4124 21.9637 43.5345C21.6692 43.6567 21.3534 43.7195 21.0345 43.7195C20.7156 43.7195 20.3999 43.6567 20.1053 43.5345C19.8107 43.4124 19.5431 43.2333 19.3176 43.0076L19.3209 43.0044Z" fill="#DD1616"/>
</svg>
