<svg width="24" height="25" viewBox="0 0 24 25" fill="none" xmlns="http://www.w3.org/2000/svg">
<g clip-path="url(#clip0_1_411)">
<path fill-rule="evenodd" clip-rule="evenodd" d="M16.1164 6.00098H7.88474C6.57101 6.00098 5.50195 7.06997 5.50195 8.38377V16.6154C5.50195 17.9294 6.57101 18.9984 7.88474 18.9984H16.1164C17.4303 18.9984 18.4994 17.9294 18.4994 16.6154V8.38377C18.4994 7.07003 17.4303 6.00098 16.1164 6.00098ZM12.0004 16.7783C9.64136 16.7783 7.72182 14.8588 7.72182 12.4994C7.72182 10.1404 9.64136 8.22084 12.0004 8.22084C14.3597 8.22084 16.2793 10.1404 16.2793 12.4994C16.2793 14.8588 14.3597 16.7783 12.0004 16.7783ZM16.4169 9.10561C15.8584 9.10561 15.4043 8.65146 15.4043 8.09326C15.4043 7.535 15.8584 7.08084 16.4169 7.08084C16.9751 7.08084 17.4293 7.535 17.4293 8.09326C17.4293 8.65153 16.9751 9.10561 16.4169 9.10561Z" fill="#232323"/>
<path fill-rule="evenodd" clip-rule="evenodd" d="M12.0002 10.0293C10.6383 10.0293 9.5293 11.1378 9.5293 12.4996C9.5293 13.862 10.6383 14.9708 12.0002 14.9708C13.3626 14.9708 14.4708 13.862 14.4708 12.4996C14.4708 11.1378 13.3626 10.0293 12.0002 10.0293Z" fill="#232323"/>
<path fill-rule="evenodd" clip-rule="evenodd" d="M0 0.5V24.5H24V0.5H0ZM20.3066 16.6158C20.3066 18.927 18.427 20.8066 16.1159 20.8066H7.8842C5.57328 20.8066 3.69336 18.927 3.69336 16.6158V8.3842C3.69336 6.07328 5.57328 4.19336 7.8842 4.19336H16.1159C18.427 4.19336 20.3066 6.07328 20.3066 8.3842V16.6158Z" fill="#232323"/>
</g>
<defs>
<clipPath id="clip0_1_411">
<rect width="24" height="24" fill="white" transform="translate(0 0.5)"/>
</clipPath>
</defs>
</svg>
