<svg width="20" height="21" viewBox="0 0 20 21" fill="none" xmlns="http://www.w3.org/2000/svg">
<g clip-path="url(#clip0_1_397)">
<path d="M15.2051 13.7302C14.5517 13.0851 13.736 13.0851 13.0867 13.7302C12.5915 14.2213 12.0962 14.7124 11.6093 15.2118C11.4761 15.3491 11.3638 15.3782 11.2014 15.2867C10.881 15.1119 10.5397 14.9704 10.2317 14.7789C8.79592 13.8758 7.59315 12.7147 6.52773 11.4079C5.99918 10.7586 5.52889 10.0636 5.20011 9.28119C5.13352 9.12304 5.14601 9.019 5.27502 8.88998C5.77028 8.41137 6.25305 7.92028 6.73998 7.42918C7.41836 6.74665 7.41836 5.94758 6.73582 5.26088C6.34877 4.86967 5.96172 4.48678 5.57467 4.09557C5.17514 3.69604 4.77977 3.29234 4.37607 2.89697C3.72267 2.26021 2.90695 2.26021 2.25771 2.90113C1.75829 3.39223 1.27968 3.89581 0.771944 4.37858C0.301659 4.82389 0.0644358 5.36909 0.014494 6.00584C-0.0645804 7.04213 0.18929 8.02016 0.547206 8.97322C1.27968 10.9459 2.39505 12.698 3.74764 14.3045C5.57467 16.477 7.75546 18.1958 10.3067 19.436C11.4553 19.9937 12.6456 20.4224 13.9399 20.4931C14.8305 20.543 15.6046 20.3183 16.2247 19.6233C16.6493 19.1488 17.1279 18.716 17.5773 18.2624C18.2432 17.5882 18.2474 16.7724 17.5857 16.1066C16.7949 15.3117 16 14.5209 15.2051 13.7302Z" fill="#F8F8F8"/>
<path d="M14.4098 10.4132L15.9455 10.151C15.7042 8.74016 15.0383 7.46249 14.027 6.44701C12.9574 5.37742 11.6048 4.70321 10.1149 4.49512L9.89844 6.03915C11.0513 6.20146 12.1 6.72169 12.9282 7.54989C13.7107 8.33231 14.2226 9.32282 14.4098 10.4132Z" fill="#F8F8F8"/>
<path d="M16.8124 3.73789C15.0394 1.96496 12.7962 0.84543 10.3199 0.5L10.1035 2.04403C12.2427 2.34368 14.1821 3.31338 15.7136 4.84077C17.1661 6.29324 18.1192 8.1286 18.4646 10.1471L20.0003 9.88488C19.5966 7.54595 18.4937 5.42342 16.8124 3.73789Z" fill="#F8F8F8"/>
</g>
<defs>
<clipPath id="clip0_1_397">
<rect width="20" height="20" fill="white" transform="translate(0 0.5)"/>
</clipPath>
</defs>
</svg>
